<svg width="169" height="49" viewBox="0 0 169 49" fill="none" xmlns="http://www.w3.org/2000/svg">
<path d="M168.061 43.349C168.061 45.9603 165.91 48.0755 163.249 48.0755H5.75775C3.09794 48.0755 0.938965 45.9603 0.938965 43.349V5.65715C0.938965 3.04711 3.09794 0.92453 5.75775 0.92453H163.247C165.91 0.92453 168.06 3.04711 168.06 5.65715L168.061 43.349Z" fill="black"/>
<path d="M37.7159 24.2354C37.6796 20.2872 41.0195 18.3664 41.1723 18.277C39.2807 15.5783 36.3489 15.2096 35.3186 15.1802C32.8562 14.9266 30.4677 16.622 29.2133 16.622C27.9339 16.622 26.0023 15.2047 23.9205 15.2463C21.2415 15.2868 18.7353 16.8045 17.3608 19.1614C14.5241 23.9671 16.6397 31.0292 19.3575 34.9137C20.717 36.8161 22.3056 38.9403 24.3849 38.8656C26.4192 38.7835 27.1791 37.5965 29.6339 37.5965C32.0663 37.5965 32.7798 38.8656 34.9005 38.8178C37.0837 38.7835 38.4582 36.9068 39.7702 34.9872C41.3413 32.8067 41.9722 30.6593 41.9972 30.549C41.9459 30.5319 37.7572 28.9676 37.7159 24.2354Z" fill="white"/>
<path d="M33.71 12.6248C34.8041 11.2859 35.5527 9.46434 35.3449 7.61581C33.7613 7.68441 31.7809 8.68769 30.6404 9.99721C29.6314 11.1512 28.7301 13.0426 28.9629 14.8213C30.7418 14.9511 32.5683 13.9429 33.71 12.6248Z" fill="white"/>
<path d="M61.4032 12.261C61.4032 13.7029 60.9613 14.7882 60.0788 15.5171C59.2613 16.1896 58.0996 16.5265 56.5949 16.5265C55.8488 16.5265 55.2103 16.4946 54.6758 16.4309V8.55295C55.3731 8.4427 56.1242 8.38635 56.9354 8.38635C58.3687 8.38635 59.4491 8.69138 60.1777 9.30143C60.9939 9.9911 61.4032 10.9772 61.4032 12.261ZM60.0199 12.2966C60.0199 11.3619 59.7671 10.6453 59.2613 10.1455C58.7556 9.64688 58.017 9.39698 57.0443 9.39698C56.6312 9.39698 56.2794 9.42393 55.9877 9.48028V15.4693C56.1492 15.4938 56.4446 15.5048 56.874 15.5048C57.878 15.5048 58.6529 15.2317 59.1987 14.6853C59.7445 14.139 60.0199 13.3427 60.0199 12.2966Z" fill="white"/>
<path d="M68.7378 13.5203C68.7378 14.4084 68.4787 15.1361 67.9604 15.7069C67.4171 16.2937 66.6973 16.5865 65.7985 16.5865C64.9322 16.5865 64.2424 16.306 63.7279 15.7425C63.2146 15.1802 62.958 14.4709 62.958 13.6159C62.958 12.7216 63.2221 11.9878 63.7529 11.4182C64.2837 10.8486 64.9973 10.5632 65.8961 10.5632C66.7624 10.5632 67.4584 10.8437 67.9854 11.406C68.4862 11.9523 68.7378 12.6579 68.7378 13.5203ZM67.377 13.562C67.377 13.0291 67.2594 12.5722 67.0253 12.1912C66.7499 11.7306 66.358 11.5003 65.8485 11.5003C65.3215 11.5003 64.9209 11.7306 64.6455 12.1912C64.4102 12.5722 64.2937 13.0364 64.2937 13.5852C64.2937 14.1181 64.4114 14.575 64.6455 14.956C64.9297 15.4166 65.3253 15.6469 65.836 15.6469C66.3368 15.6469 66.7298 15.4129 67.0128 14.9438C67.2556 14.5554 67.377 14.0948 67.377 13.562Z" fill="white"/>
<path d="M78.5726 10.6808L76.7261 16.4554H75.5243L74.7595 13.9479C74.5654 13.3219 74.4077 12.6996 74.285 12.0822H74.2612C74.1473 12.7167 73.9896 13.3378 73.7868 13.9479L72.9743 16.4554H71.7588L70.0225 10.6808H71.3707L72.0379 13.426C72.1994 14.0753 72.3321 14.6939 72.4385 15.2794H72.4623C72.56 14.7968 72.7214 14.1818 72.9493 13.4383L73.7868 10.682H74.8559L75.6583 13.3795C75.8523 14.0373 76.0101 14.6706 76.1315 15.2807H76.1678C76.2567 14.6865 76.3906 14.0532 76.5684 13.3795L77.2844 10.682H78.5726V10.6808Z" fill="white"/>
<path d="M85.3738 16.4554H84.0619V13.1479C84.0619 12.1287 83.6663 11.6191 82.8726 11.6191C82.4833 11.6191 82.1691 11.7588 81.925 12.0393C81.6834 12.3198 81.5607 12.6506 81.5607 13.0291V16.4542H80.2487V12.3309C80.2487 11.8237 80.2325 11.2737 80.2012 10.6783H81.3541L81.4155 11.5812H81.4518C81.6045 11.3006 81.8323 11.0691 82.1315 10.8841C82.487 10.6685 82.8851 10.5595 83.3208 10.5595C83.8716 10.5595 84.3298 10.7335 84.694 11.0826C85.1472 11.5101 85.3738 12.1483 85.3738 12.996V16.4554V16.4554Z" fill="white"/>
<path d="M88.9913 16.4554H87.6807V8.0311H88.9913V16.4554Z" fill="white"/>
<path d="M96.7154 13.5203C96.7154 14.4084 96.4562 15.1361 95.938 15.7069C95.3946 16.2937 94.6736 16.5865 93.776 16.5865C92.9085 16.5865 92.2187 16.306 91.7054 15.7425C91.1922 15.1802 90.9355 14.4709 90.9355 13.6159C90.9355 12.7216 91.1997 11.9878 91.7305 11.4182C92.2613 10.8486 92.9748 10.5632 93.8724 10.5632C94.7399 10.5632 95.4347 10.8437 95.963 11.406C96.4637 11.9523 96.7154 12.6579 96.7154 13.5203ZM95.3533 13.562C95.3533 13.0291 95.2357 12.5722 95.0016 12.1912C94.7274 11.7306 94.3343 11.5003 93.8261 11.5003C93.2978 11.5003 92.8972 11.7306 92.623 12.1912C92.3877 12.5722 92.2713 13.0364 92.2713 13.5852C92.2713 14.1181 92.3889 14.575 92.623 14.956C92.9072 15.4166 93.3028 15.6469 93.8136 15.6469C94.3143 15.6469 94.7061 15.4129 94.989 14.9438C95.2332 14.5554 95.3533 14.0948 95.3533 13.562Z" fill="white"/>
<path d="M103.065 16.4554H101.887L101.789 15.7902H101.753C101.35 16.3207 100.775 16.5865 100.029 16.5865C99.4721 16.5865 99.0214 16.4113 98.6822 16.0634C98.3742 15.7474 98.2202 15.3541 98.2202 14.8874C98.2202 14.1818 98.5207 13.644 99.1253 13.2716C99.7287 12.8992 100.577 12.7167 101.67 12.7253V12.6175C101.67 11.8568 101.262 11.477 100.445 11.477C99.8626 11.477 99.3494 11.6203 98.9062 11.9045L98.6396 11.0617C99.1879 10.7298 99.8651 10.5632 100.664 10.5632C102.206 10.5632 102.98 11.3594 102.98 12.9519V15.0785C102.98 15.6555 103.009 16.1149 103.065 16.4554ZM101.703 14.4709V13.5803C100.256 13.5558 99.5322 13.9442 99.5322 14.7441C99.5322 15.0454 99.6148 15.2708 99.7838 15.4215C99.9528 15.5722 100.168 15.6469 100.425 15.6469C100.713 15.6469 100.982 15.5575 101.227 15.3799C101.474 15.201 101.625 14.9744 101.682 14.6963C101.695 14.6338 101.703 14.5579 101.703 14.4709Z" fill="white"/>
<path d="M110.52 16.4554H109.355L109.294 15.5281H109.258C108.886 16.2337 108.252 16.5865 107.362 16.5865C106.651 16.5865 106.059 16.3133 105.59 15.767C105.12 15.2206 104.886 14.5113 104.886 13.6404C104.886 12.7057 105.14 11.9486 105.651 11.3704C106.146 10.8314 106.751 10.5619 107.473 10.5619C108.265 10.5619 108.82 10.8229 109.135 11.3459H109.16V8.0311H110.473V14.8997C110.473 15.4619 110.488 15.9801 110.52 16.4554ZM109.16 14.0201V13.0573C109.16 12.8907 109.148 12.7559 109.124 12.653C109.05 12.3443 108.891 12.0846 108.649 11.8751C108.405 11.6657 108.111 11.5603 107.772 11.5603C107.282 11.5603 106.899 11.7502 106.618 12.1312C106.338 12.5121 106.197 12.9985 106.197 13.5926C106.197 14.1634 106.331 14.6265 106.6 14.983C106.884 15.3627 107.267 15.5526 107.747 15.5526C108.177 15.5526 108.522 15.3946 108.783 15.0773C109.036 14.7845 109.16 14.4317 109.16 14.0201Z" fill="white"/>
<path d="M121.74 13.5203C121.74 14.4084 121.481 15.1361 120.962 15.7069C120.419 16.2937 119.7 16.5865 118.8 16.5865C117.935 16.5865 117.246 16.306 116.73 15.7425C116.217 15.1802 115.96 14.4709 115.96 13.6159C115.96 12.7216 116.224 11.9878 116.755 11.4182C117.286 10.8486 117.999 10.5632 118.899 10.5632C119.764 10.5632 120.462 10.8437 120.987 11.406C121.488 11.9523 121.74 12.6579 121.74 13.5203ZM120.38 13.562C120.38 13.0291 120.263 12.5722 120.028 12.1912C119.752 11.7306 119.361 11.5003 118.85 11.5003C118.325 11.5003 117.924 11.7306 117.647 12.1912C117.412 12.5722 117.296 13.0364 117.296 13.5852C117.296 14.1181 117.413 14.575 117.647 14.956C117.932 15.4166 118.327 15.6469 118.838 15.6469C119.339 15.6469 119.733 15.4129 120.016 14.9438C120.258 14.5554 120.38 14.0948 120.38 13.562Z" fill="white"/>
<path d="M128.794 16.4554H127.483V13.1479C127.483 12.1287 127.088 11.6191 126.293 11.6191C125.903 11.6191 125.589 11.7588 125.346 12.0393C125.103 12.3198 124.982 12.6506 124.982 13.0291V16.4542H123.669V12.3309C123.669 11.8237 123.654 11.2737 123.623 10.6783H124.774L124.836 11.5812H124.872C125.026 11.3006 125.254 11.0691 125.552 10.8841C125.908 10.6685 126.305 10.5595 126.742 10.5595C127.292 10.5595 127.75 10.7335 128.114 11.0826C128.569 11.5101 128.794 12.1483 128.794 12.996V16.4554V16.4554Z" fill="white"/>
<path d="M137.623 11.6424H136.179V14.4477C136.179 15.1606 136.435 15.5171 136.944 15.5171C137.179 15.5171 137.374 15.4975 137.528 15.4571L137.562 16.4309C137.303 16.5265 136.962 16.5743 136.543 16.5743C136.025 16.5743 135.622 16.4199 135.33 16.1112C135.037 15.8025 134.892 15.2831 134.892 14.5542V11.6424H134.029V10.6808H134.892V9.6224L136.177 9.24265V10.6796H137.622V11.6424H137.623Z" fill="white"/>
<path d="M144.569 16.4554H143.256V13.1724C143.256 12.1373 142.86 11.6191 142.068 11.6191C141.459 11.6191 141.044 11.9192 140.816 12.5195C140.777 12.6457 140.755 12.8 140.755 12.9813V16.4542H139.444V8.0311H140.755V11.5113H140.78C141.193 10.878 141.785 10.5619 142.552 10.5619C143.096 10.5619 143.545 10.7359 143.902 11.085C144.346 11.5199 144.569 12.1667 144.569 13.0217V16.4554V16.4554Z" fill="white"/>
<path d="M151.733 13.2949C151.733 13.5252 151.716 13.7188 151.684 13.8768H147.75C147.767 14.4477 147.955 14.8825 148.32 15.1839C148.653 15.4534 149.082 15.5881 149.608 15.5881C150.19 15.5881 150.721 15.4975 151.199 15.315L151.404 16.2068C150.845 16.4444 150.186 16.5632 149.424 16.5632C148.51 16.5632 147.79 16.2999 147.269 15.7731C146.746 15.2464 146.487 14.5395 146.487 13.6526C146.487 12.7817 146.728 12.0565 147.215 11.4783C147.724 10.8609 148.411 10.5522 149.278 10.5522C150.127 10.5522 150.772 10.8609 151.208 11.4783C151.559 11.9683 151.733 12.5746 151.733 13.2949ZM150.481 12.963C150.491 12.582 150.405 12.2537 150.227 11.9768C150 11.6204 149.653 11.4415 149.183 11.4415C148.755 11.4415 148.406 11.6155 148.139 11.9646C147.921 12.2427 147.792 12.5746 147.75 12.963H150.481Z" fill="white"/>
<path d="M67.1554 38.5924H64.3124L62.7551 33.8038H57.3421L55.8587 38.5924H53.0908L58.4538 22.2901H61.7662L67.1554 38.5924ZM62.2857 31.7948L60.8773 27.538C60.7284 27.1031 60.4492 26.079 60.0373 24.4669H59.9873C59.8233 25.1602 59.5591 26.1843 59.1961 27.538L57.8128 31.7948H62.2857V31.7948Z" fill="white"/>
<path d="M80.9468 32.5703C80.9468 34.5695 80.3947 36.1498 79.2906 37.3098C78.3016 38.3425 77.0736 38.8582 75.6076 38.8582C74.0253 38.8582 72.8886 38.3021 72.1963 37.1898H72.1463V43.3822H69.4773V30.7071C69.4773 29.4502 69.4435 28.1603 69.3784 26.8373H71.7256L71.8746 28.7005H71.9247C72.8148 27.2967 74.1655 26.596 75.9782 26.596C77.3953 26.596 78.5783 27.1436 79.5247 28.2399C80.4736 29.3375 80.9468 30.7806 80.9468 32.5703ZM78.2278 32.6659C78.2278 31.5217 77.9649 30.5785 77.4366 29.8361C76.8595 29.0619 76.0846 28.6748 75.1131 28.6748C74.4547 28.6748 73.8563 28.8904 73.3217 29.3155C72.786 29.7442 72.4354 30.3041 72.2714 30.9974C72.1888 31.3208 72.1475 31.5854 72.1475 31.7937V33.7537C72.1475 34.6087 72.4154 35.3302 72.9512 35.9195C73.487 36.5087 74.183 36.8027 75.0393 36.8027C76.0445 36.8027 76.8269 36.4229 77.3865 35.6659C77.9473 34.9076 78.2278 33.908 78.2278 32.6659Z" fill="white"/>
<path d="M94.7639 32.5703C94.7639 34.5695 94.2118 36.1498 93.1064 37.3098C92.1187 38.3425 90.8907 38.8582 89.4247 38.8582C87.8424 38.8582 86.7057 38.3021 86.0147 37.1898H85.9646V43.3822H83.2957V30.7071C83.2957 29.4502 83.2619 28.1603 83.1968 26.8373H85.544L85.693 28.7005H85.743C86.6319 27.2967 87.9826 26.596 89.7965 26.596C91.2124 26.596 92.3954 27.1436 93.3443 28.2399C94.2894 29.3375 94.7639 30.7806 94.7639 32.5703ZM92.0449 32.6659C92.0449 31.5217 91.7807 30.5785 91.2524 29.8361C90.6753 29.0619 89.9029 28.6748 88.9303 28.6748C88.2705 28.6748 87.6734 28.8904 87.1376 29.3155C86.6018 29.7442 86.2525 30.3041 86.0886 30.9974C86.0072 31.3208 85.9646 31.5854 85.9646 31.7937V33.7537C85.9646 34.6087 86.2325 35.3302 86.7658 35.9195C87.3016 36.5075 87.9976 36.8027 88.8564 36.8027C89.8616 36.8027 90.644 36.4229 91.2036 35.6659C91.7645 34.9076 92.0449 33.908 92.0449 32.6659Z" fill="white"/>
<path d="M110.212 34.0207C110.212 35.4074 109.72 36.5356 108.732 37.4066C107.647 38.3584 106.136 38.8337 104.194 38.8337C102.401 38.8337 100.964 38.4956 99.8765 37.8182L100.495 35.6414C101.667 36.3347 102.952 36.6826 104.353 36.6826C105.358 36.6826 106.141 36.4597 106.703 36.0162C107.262 35.5728 107.542 34.9774 107.542 34.2351C107.542 33.5736 107.311 33.0162 106.849 32.5642C106.39 32.1121 105.622 31.692 104.551 31.3036C101.634 30.2391 100.177 28.6797 100.177 26.629C100.177 25.2889 100.688 24.1901 101.71 23.335C102.729 22.4787 104.089 22.0512 105.789 22.0512C107.305 22.0512 108.564 22.3097 109.57 22.8254L108.902 24.9545C107.963 24.4547 106.902 24.2048 105.714 24.2048C104.775 24.2048 104.041 24.4314 103.516 24.8822C103.071 25.2852 102.848 25.7764 102.848 26.3583C102.848 27.0027 103.102 27.5355 103.613 27.9545C104.058 28.3416 104.865 28.7605 106.037 29.2126C107.47 29.7773 108.523 30.4376 109.2 31.1946C109.875 31.9492 110.212 32.8937 110.212 34.0207Z" fill="white"/>
<path d="M119.036 28.7973H116.094V34.5045C116.094 35.9562 116.612 36.6814 117.651 36.6814C118.128 36.6814 118.524 36.6409 118.837 36.5601L118.911 38.5434C118.385 38.7357 117.693 38.8325 116.835 38.8325C115.781 38.8325 114.958 38.5176 114.363 37.8892C113.771 37.2596 113.473 36.2036 113.473 34.7201V28.7948H111.72V26.8348H113.473V24.6825L116.094 23.9083V26.8348H119.036V28.7973Z" fill="white"/>
<path d="M132.309 32.618C132.309 34.4249 131.781 35.9084 130.727 37.0685C129.621 38.2628 128.154 38.8582 126.325 38.8582C124.563 38.8582 123.159 38.2861 122.113 37.142C121.066 35.9978 120.543 34.5535 120.543 32.8128C120.543 30.9912 121.081 29.4992 122.162 28.3391C123.239 27.1778 124.694 26.5972 126.523 26.5972C128.286 26.5972 129.704 27.1692 130.774 28.3146C131.798 29.4257 132.309 30.8602 132.309 32.618ZM129.54 32.7026C129.54 31.6184 129.303 30.6887 128.824 29.9132C128.264 28.9749 127.464 28.5069 126.428 28.5069C125.355 28.5069 124.54 28.9761 123.981 29.9132C123.501 30.6899 123.264 31.6344 123.264 32.7516C123.264 33.8357 123.501 34.7655 123.981 35.5397C124.558 36.478 125.364 36.946 126.404 36.946C127.423 36.946 128.223 36.4682 128.8 35.5152C129.292 34.725 129.54 33.7855 129.54 32.7026Z" fill="white"/>
<path d="M140.985 29.1342C140.721 29.0864 140.439 29.0619 140.143 29.0619C139.205 29.0619 138.478 29.4086 137.968 30.1032C137.523 30.7157 137.3 31.4899 137.3 32.4245V38.5924H134.633L134.658 30.5393C134.658 29.1844 134.624 27.9508 134.558 26.8385H136.882L136.98 29.0876H137.054C137.335 28.3147 137.78 27.6924 138.388 27.2256C138.983 26.8055 139.625 26.596 140.317 26.596C140.564 26.596 140.787 26.6131 140.985 26.6438V29.1342Z" fill="white"/>
<path d="M152.921 32.1587C152.921 32.6266 152.89 33.0211 152.823 33.3433H144.816C144.848 34.5046 145.235 35.3927 145.978 36.0052C146.653 36.5528 147.525 36.8272 148.597 36.8272C149.783 36.8272 150.864 36.6422 151.837 36.271L152.255 38.084C151.118 38.5691 149.776 38.8104 148.228 38.8104C146.365 38.8104 144.903 38.2739 143.839 37.202C142.777 36.1301 142.245 34.6908 142.245 32.8851C142.245 31.1125 142.74 29.6364 143.73 28.4592C144.766 27.2023 146.167 26.5739 147.93 26.5739C149.661 26.5739 150.972 27.2023 151.862 28.4592C152.567 29.4576 152.921 30.6924 152.921 32.1587ZM150.376 31.4813C150.393 30.7071 150.219 30.0382 149.858 29.4735C149.396 28.7471 148.686 28.3845 147.731 28.3845C146.858 28.3845 146.148 28.7385 145.606 29.449C145.162 30.0137 144.898 30.6911 144.816 31.48H150.376V31.4813Z" fill="white"/>
</svg>
