<svg width="29" height="29" viewBox="0 0 29 29" fill="none" xmlns="http://www.w3.org/2000/svg">
<path d="M14.5 29C22.5081 29 29 22.5081 29 14.5C29 6.49187 22.5081 0 14.5 0C6.49187 0 0 6.49187 0 14.5C0 22.5081 6.49187 29 14.5 29Z" fill="#2563EB"/>
<path d="M21.3218 11.3003L13.3038 19.5603C13.1896 19.6798 13.0535 19.7746 12.9035 19.8394C12.7534 19.9042 12.5923 19.9375 12.4295 19.9375C12.2668 19.9375 12.1057 19.9042 11.9556 19.8394C11.8055 19.7746 11.6695 19.6798 11.5553 19.5603L7.5463 15.4303C7.34382 15.1861 7.23836 14.8721 7.25102 14.5512C7.26368 14.2303 7.39354 13.9262 7.61459 13.6998C7.83564 13.4733 8.13157 13.3412 8.44313 13.3299C8.75469 13.3187 9.05888 13.4291 9.2948 13.639L12.4344 16.8634L19.5733 9.50899C19.6839 9.37562 19.82 9.26722 19.9731 9.19057C20.1263 9.11392 20.2931 9.07068 20.4633 9.06355C20.6334 9.05643 20.8031 9.08557 20.9618 9.14917C21.1205 9.21276 21.2647 9.30942 21.3854 9.4331C21.5061 9.55678 21.6008 9.70482 21.6634 9.86794C21.726 10.0311 21.7552 10.2057 21.7492 10.381C21.7433 10.5563 21.7022 10.7284 21.6286 10.8866C21.5551 11.0448 21.4506 11.1857 21.3218 11.3003V11.3003Z" fill="white"/>
</svg>
