<svg width="128" height="128" viewBox="0 0 128 128" fill="none" xmlns="http://www.w3.org/2000/svg">
<g filter="url(#filter0_d_452_841)">
<rect x="16" y="12" width="96" height="96" rx="10" fill="white"/>
</g>
<path fill-rule="evenodd" clip-rule="evenodd" d="M53.2648 39.6612L43 33.1874L53.3374 26.668L63.6665 33.1824L73.9962 26.668L84.3332 33.1874L74.0683 39.6611L84.3333 46.1351L73.9961 52.6546L63.6666 46.14L53.3372 52.6546L43 46.1351L53.2648 39.6612ZM63.6665 33.1923L73.9237 39.6612L63.6666 46.1301L53.4095 39.6611L63.6665 33.1923ZM63.7409 61.3346L53.4037 54.8151L63.7409 48.2963L74.0783 54.8151L63.7409 61.3346Z" fill="#0061FF"/>
<path d="M41.4387 78.2C42.7827 78.2 43.9027 78.6713 44.7987 79.614C45.7041 80.5567 46.1567 81.7187 46.1567 83.1C46.1567 84.4813 45.7041 85.6433 44.7987 86.586C43.9027 87.5287 42.7827 88 41.4387 88H37.5467V78.2H41.4387ZM41.4387 86.152C42.2881 86.152 42.9787 85.872 43.5107 85.312C44.0427 84.7427 44.3087 84.0053 44.3087 83.1C44.3087 82.1947 44.0427 81.462 43.5107 80.902C42.9787 80.3327 42.2881 80.048 41.4387 80.048H39.4787V86.152H41.4387ZM49.2492 82.204C49.4172 81.756 49.6925 81.42 50.0752 81.196C50.4672 80.972 50.9012 80.86 51.3772 80.86V82.876C50.8265 82.8107 50.3319 82.9227 49.8932 83.212C49.4639 83.5013 49.2492 83.982 49.2492 84.654V88H47.4432V81H49.2492V82.204ZM58.1377 87.132C57.419 87.8413 56.5417 88.196 55.5057 88.196C54.4697 88.196 53.5923 87.8413 52.8737 87.132C52.1643 86.4133 51.8097 85.536 51.8097 84.5C51.8097 83.464 52.1643 82.5913 52.8737 81.882C53.5923 81.1633 54.4697 80.804 55.5057 80.804C56.5417 80.804 57.419 81.1633 58.1377 81.882C58.8563 82.5913 59.2157 83.464 59.2157 84.5C59.2157 85.536 58.8563 86.4133 58.1377 87.132ZM54.1477 85.886C54.5117 86.25 54.9643 86.432 55.5057 86.432C56.047 86.432 56.4997 86.25 56.8637 85.886C57.2277 85.522 57.4097 85.06 57.4097 84.5C57.4097 83.94 57.2277 83.478 56.8637 83.114C56.4997 82.75 56.047 82.568 55.5057 82.568C54.9643 82.568 54.5117 82.75 54.1477 83.114C53.793 83.478 53.6157 83.94 53.6157 84.5C53.6157 85.06 53.793 85.522 54.1477 85.886ZM64.5602 80.804C65.5028 80.804 66.3055 81.1633 66.9682 81.882C67.6402 82.5913 67.9762 83.464 67.9762 84.5C67.9762 85.536 67.6402 86.4133 66.9682 87.132C66.3055 87.8413 65.5028 88.196 64.5602 88.196C63.5802 88.196 62.8242 87.8553 62.2922 87.174V90.8H60.4862V81H62.2922V81.826C62.8242 81.1447 63.5802 80.804 64.5602 80.804ZM62.8382 85.928C63.2022 86.292 63.6642 86.474 64.2242 86.474C64.7842 86.474 65.2462 86.292 65.6102 85.928C65.9835 85.5547 66.1702 85.0787 66.1702 84.5C66.1702 83.9213 65.9835 83.45 65.6102 83.086C65.2462 82.7127 64.7842 82.526 64.2242 82.526C63.6642 82.526 63.2022 82.7127 62.8382 83.086C62.4742 83.45 62.2922 83.9213 62.2922 84.5C62.2922 85.0787 62.4742 85.5547 62.8382 85.928ZM73.3238 80.804C74.2665 80.804 75.0692 81.1633 75.7318 81.882C76.4038 82.5913 76.7398 83.464 76.7398 84.5C76.7398 85.536 76.4038 86.4133 75.7318 87.132C75.0692 87.8413 74.2665 88.196 73.3238 88.196C72.3438 88.196 71.5878 87.8553 71.0558 87.174V88H69.2498V78.2H71.0558V81.826C71.5878 81.1447 72.3438 80.804 73.3238 80.804ZM71.6018 85.928C71.9658 86.292 72.4278 86.474 72.9878 86.474C73.5478 86.474 74.0098 86.292 74.3738 85.928C74.7472 85.5547 74.9338 85.0787 74.9338 84.5C74.9338 83.9213 74.7472 83.45 74.3738 83.086C74.0098 82.7127 73.5478 82.526 72.9878 82.526C72.4278 82.526 71.9658 82.7127 71.6018 83.086C71.2378 83.45 71.0558 83.9213 71.0558 84.5C71.0558 85.0787 71.2378 85.5547 71.6018 85.928ZM83.9775 87.132C83.2588 87.8413 82.3815 88.196 81.3455 88.196C80.3095 88.196 79.4322 87.8413 78.7135 87.132C78.0042 86.4133 77.6495 85.536 77.6495 84.5C77.6495 83.464 78.0042 82.5913 78.7135 81.882C79.4322 81.1633 80.3095 80.804 81.3455 80.804C82.3815 80.804 83.2588 81.1633 83.9775 81.882C84.6962 82.5913 85.0555 83.464 85.0555 84.5C85.0555 85.536 84.6962 86.4133 83.9775 87.132ZM79.9875 85.886C80.3515 86.25 80.8042 86.432 81.3455 86.432C81.8868 86.432 82.3395 86.25 82.7035 85.886C83.0675 85.522 83.2495 85.06 83.2495 84.5C83.2495 83.94 83.0675 83.478 82.7035 83.114C82.3395 82.75 81.8868 82.568 81.3455 82.568C80.8042 82.568 80.3515 82.75 79.9875 83.114C79.6328 83.478 79.4555 83.94 79.4555 84.5C79.4555 85.06 79.6328 85.522 79.9875 85.886ZM92.2878 88H90.2018L88.6898 85.872L87.1638 88H85.0778L87.6398 84.43L85.1898 81H87.2758L88.6898 82.974L90.1038 81H92.1758L89.7258 84.416L92.2878 88Z" fill="black"/>
<defs>
<filter id="filter0_d_452_841" x="0" y="0" width="128" height="128" filterUnits="userSpaceOnUse" color-interpolation-filters="sRGB">
<feFlood flood-opacity="0" result="BackgroundImageFix"/>
<feColorMatrix in="SourceAlpha" type="matrix" values="0 0 0 0 0 0 0 0 0 0 0 0 0 0 0 0 0 0 127 0" result="hardAlpha"/>
<feOffset dy="4"/>
<feGaussianBlur stdDeviation="8"/>
<feComposite in2="hardAlpha" operator="out"/>
<feColorMatrix type="matrix" values="0 0 0 0 0.579167 0 0 0 0 0.579167 0 0 0 0 0.579167 0 0 0 0.15 0"/>
<feBlend mode="normal" in2="BackgroundImageFix" result="effect1_dropShadow_452_841"/>
<feBlend mode="normal" in="SourceGraphic" in2="effect1_dropShadow_452_841" result="shape"/>
</filter>
</defs>
</svg>
