<svg width="24" height="25" viewBox="0 0 24 25" fill="none" xmlns="http://www.w3.org/2000/svg">
<path d="M7.28949 5.40749C10.4241 5.135 13.5765 5.135 16.7111 5.40749L18.2214 5.53877C19.2267 5.62617 20.0878 6.22584 20.534 7.08361C20.591 7.19335 20.5483 7.32621 20.4431 7.39132L14.1771 11.2702C12.8333 12.1022 11.1387 12.1196 9.77802 11.3156L3.4702 7.5882C3.36829 7.52798 3.32151 7.40402 3.36744 7.29492C3.77559 6.32536 4.69322 5.63318 5.77925 5.53877L7.28949 5.40749Z" fill="white"/>
<path d="M3.3623 9.26676C3.20634 9.1746 3.00734 9.27377 2.98916 9.45402C2.73542 11.9697 2.79683 14.5091 3.17339 17.0132C3.3719 18.3333 4.44931 19.3454 5.77926 19.461L7.28949 19.5923C10.4241 19.8647 13.5765 19.8647 16.7111 19.5923L18.2214 19.461C19.5513 19.3454 20.6287 18.3333 20.8272 17.0132C21.2148 14.4361 21.2685 11.8216 20.9885 9.23415C20.9688 9.05264 20.7665 8.95529 20.6112 9.05139L14.9667 12.5456C13.1485 13.6712 10.8559 13.6948 9.01493 12.6069L3.3623 9.26676Z" fill="white"/>
</svg>
