<svg width="170" height="49" viewBox="0 0 170 49" fill="none" xmlns="http://www.w3.org/2000/svg">
<path d="M163.704 49H6.2963C2.83491 49 0 46.2422 0 42.875V6.125C0 2.75778 2.83491 -9.53674e-07 6.2963 -9.53674e-07H163.704C167.165 -9.53674e-07 170 2.75778 170 6.125V42.875C170 46.2422 167.165 49 163.704 49Z" fill="black"/>
<path d="M12.1958 9.23494C11.8259 9.61163 11.6118 10.1981 11.6118 10.9576V38.0485C11.6118 38.808 11.8259 39.3944 12.1958 39.7711L12.2871 39.8538L27.8925 24.6791V24.3208L12.2871 9.14613L12.1958 9.23494Z" fill="white"/>
<path d="M34.9773 29.7399L29.7812 24.6791V24.3208L34.9836 19.26L35.1 19.3259L41.261 22.736C43.0192 23.7037 43.0192 25.2962 41.261 26.2701L35.1 29.6741L34.9773 29.7399V29.7399Z" fill="white"/>
<path d="M34.1556 30.6164L28.8368 25.4423L13.1401 40.7134C13.7241 41.3106 14.6764 41.3826 15.7594 40.7854L34.1556 30.6164" fill="white"/>
<path d="M34.1556 18.3836L15.7594 8.21456C14.6764 7.62349 13.7241 7.69546 13.1401 8.29265L28.8368 23.5577L34.1556 18.3836Z" fill="white"/>
<path d="M59.7111 12.5486C59.7111 13.5715 59.3963 14.3907 58.7761 15.0016C58.0631 15.7259 57.1344 16.0904 55.9963 16.0904C54.9086 16.0904 53.9799 15.7198 53.2181 14.9894C52.4547 14.2483 52.0737 13.3387 52.0737 12.25C52.0737 11.1613 52.4547 10.2517 53.2181 9.5167C53.9799 8.78017 54.9086 8.40961 55.9963 8.40961C56.5378 8.40961 57.0541 8.51833 57.5468 8.72045C58.0379 8.92411 58.4377 9.19973 58.7273 9.53967L58.0694 10.1859C57.5641 9.60551 56.8762 9.31917 55.9963 9.31917C55.203 9.31917 54.5151 9.58867 53.9311 10.1323C53.3535 10.6774 53.0638 11.3833 53.0638 12.25C53.0638 13.1167 53.3535 13.8287 53.9311 14.3738C54.5151 14.9113 55.203 15.1869 55.9963 15.1869C56.8385 15.1869 57.5468 14.9113 58.1056 14.3677C58.4739 14.0079 58.6833 13.5117 58.7384 12.8778H55.9963V11.9927H59.6545C59.6985 12.1841 59.7111 12.3694 59.7111 12.5486V12.5486Z" fill="white" stroke="white" stroke-width="0.16" stroke-miterlimit="10"/>
<path d="M65.5149 9.47994H62.0787V11.8074H65.1765V12.6925H62.0787V15.02H65.5149V15.9219H61.106V8.57803H65.5149V9.47994Z" fill="white" stroke="white" stroke-width="0.16" stroke-miterlimit="10"/>
<path d="M69.6102 15.9219H68.6375V9.47994H66.5298V8.57803H71.7195V9.47994H69.6102V15.9219V15.9219Z" fill="white" stroke="white" stroke-width="0.16" stroke-miterlimit="10"/>
<path d="M75.4756 15.9219V8.57803H76.4468V15.9219H75.4756Z" fill="white" stroke="white" stroke-width="0.16" stroke-miterlimit="10"/>
<path d="M80.7518 15.9219H79.7869V9.47994H77.6714V8.57803H82.8674V9.47994H80.7518V15.9219Z" fill="white" stroke="white" stroke-width="0.16" stroke-miterlimit="10"/>
<path d="M92.6927 14.9771C91.9481 15.7198 91.0257 16.0904 89.9254 16.0904C88.8189 16.0904 87.8965 15.7198 87.1519 14.9771C86.409 14.236 86.0391 13.3265 86.0391 12.25C86.0391 11.1735 86.409 10.264 87.1519 9.52283C87.8965 8.78017 88.8189 8.40961 89.9254 8.40961C91.0194 8.40961 91.9418 8.78017 92.6864 9.52895C93.4356 10.2762 93.8055 11.1796 93.8055 12.25C93.8055 13.3265 93.4356 14.236 92.6927 14.9771ZM87.8713 14.3616C88.4317 14.9113 89.1132 15.1869 89.9254 15.1869C90.7314 15.1869 91.4192 14.9113 91.9733 14.3616C92.5321 13.8119 92.8154 13.106 92.8154 12.25C92.8154 11.394 92.5321 10.6881 91.9733 10.1384C91.4192 9.58867 90.7314 9.31304 89.9254 9.31304C89.1132 9.31304 88.4317 9.58867 87.8713 10.1384C87.3125 10.6881 87.0292 11.394 87.0292 12.25C87.0292 13.106 87.3125 13.8119 87.8713 14.3616V14.3616Z" fill="white" stroke="white" stroke-width="0.16" stroke-miterlimit="10"/>
<path d="M95.1704 15.9219V8.57803H96.351L100.022 14.2896H100.064L100.022 12.8778V8.57803H100.993V15.9219H99.9792L96.1353 9.9286H96.0928L96.1353 11.3465V15.9219H95.1704V15.9219Z" fill="white" stroke="white" stroke-width="0.16" stroke-miterlimit="10"/>
<path d="M85.7998 26.6468C82.8421 26.6468 80.4259 28.8365 80.4259 31.8577C80.4259 34.8543 82.8421 37.067 85.7998 37.067C88.7638 37.067 91.18 34.8543 91.18 31.8577C91.18 28.8365 88.7638 26.6468 85.7998 26.6468ZM85.7998 35.0151C84.1769 35.0151 82.7807 33.712 82.7807 31.8577C82.7807 29.9788 84.1769 28.6987 85.7998 28.6987C87.4227 28.6987 88.8252 29.9788 88.8252 31.8577C88.8252 33.712 87.4227 35.0151 85.7998 35.0151V35.0151ZM74.0745 26.6468C71.1105 26.6468 68.7006 28.8365 68.7006 31.8577C68.7006 34.8543 71.1105 37.067 74.0745 37.067C77.0369 37.067 79.4484 34.8543 79.4484 31.8577C79.4484 28.8365 77.0369 26.6468 74.0745 26.6468ZM74.0745 35.0151C72.4501 35.0151 71.0492 33.712 71.0492 31.8577C71.0492 29.9788 72.4501 28.6987 74.0745 28.6987C75.6974 28.6987 77.0936 29.9788 77.0936 31.8577C77.0936 33.712 75.6974 35.0151 74.0745 35.0151ZM60.1219 28.2439V30.4581H65.5572C65.3982 31.6954 64.9732 32.6049 64.3216 33.2389C63.5282 34.0045 62.2926 34.8543 60.1219 34.8543C56.777 34.8543 54.1578 32.2282 54.1578 28.9743C54.1578 25.7204 56.777 23.0943 60.1219 23.0943C61.9305 23.0943 63.2465 23.7819 64.2177 24.6731L65.8217 23.1127C64.4632 21.851 62.6562 20.8817 60.1219 20.8817C55.5351 20.8817 51.6802 24.5123 51.6802 28.9743C51.6802 33.4364 55.5351 37.067 60.1219 37.067C62.6011 37.067 64.4632 36.2769 65.9271 34.7946C67.4272 33.3353 67.8947 31.2835 67.8947 29.6267C67.8947 29.1122 67.8506 28.639 67.7719 28.2439H60.1219ZM117.176 29.9605C116.733 28.7952 115.369 26.6468 112.589 26.6468C109.834 26.6468 107.541 28.7584 107.541 31.8577C107.541 34.7762 109.811 37.067 112.853 37.067C115.314 37.067 116.733 35.6077 117.317 34.7579L115.492 33.5742C114.882 34.4409 114.053 35.0151 112.853 35.0151C111.662 35.0151 110.807 34.4838 110.259 33.4364L117.423 30.5531L117.176 29.9605V29.9605ZM109.872 31.6954C109.811 29.6864 111.476 28.6574 112.669 28.6574C113.604 28.6574 114.398 29.1122 114.662 29.7629L109.872 31.6954V31.6954ZM104.05 36.75H106.404V21.4375H104.05V36.75ZM100.193 27.8075H100.114C99.5855 27.1981 98.5766 26.6468 97.2984 26.6468C94.6162 26.6468 92.1638 28.9376 92.1638 31.8745C92.1638 34.7946 94.6162 37.067 97.2984 37.067C98.5766 37.067 99.5855 36.5112 100.114 35.8833H100.193V36.6306C100.193 38.6227 99.0991 39.6931 97.3346 39.6931C95.8959 39.6931 95.0034 38.6825 94.6351 37.8326L92.5872 38.6641C93.1775 40.0453 94.7405 41.745 97.3346 41.745C100.096 41.745 102.425 40.1647 102.425 36.3197V26.9638H100.193V27.8075V27.8075ZM97.4999 35.0151C95.877 35.0151 94.5186 33.6937 94.5186 31.8745C94.5186 30.0386 95.877 28.6987 97.4999 28.6987C99.0991 28.6987 100.36 30.0386 100.36 31.8745C100.36 33.6937 99.0991 35.0151 97.4999 35.0151V35.0151ZM128.201 21.4375H122.569V36.75H124.917V30.9481H128.201C130.809 30.9481 133.367 29.1122 133.367 26.1921C133.367 23.2735 130.803 21.4375 128.201 21.4375V21.4375ZM128.262 28.8182H124.917V23.5675H128.262C130.016 23.5675 131.017 24.9839 131.017 26.1921C131.017 27.3772 130.016 28.8182 128.262 28.8182ZM142.78 26.6177C141.083 26.6177 139.318 27.3466 138.593 28.9621L140.677 29.8119C141.125 28.9621 141.95 28.6865 142.822 28.6865C144.041 28.6865 145.276 29.3985 145.295 30.6557V30.8164C144.87 30.5776 143.96 30.2238 142.841 30.2238C140.596 30.2238 138.309 31.4259 138.309 33.6692C138.309 35.721 140.148 37.0425 142.215 37.0425C143.795 37.0425 144.667 36.3488 145.215 35.5419H145.295V36.7255H147.563V30.8517C147.563 28.1367 145.479 26.6177 142.78 26.6177ZM142.496 35.009C141.728 35.009 140.658 34.6384 140.658 33.712C140.658 32.5268 141.993 32.0721 143.148 32.0721C144.182 32.0721 144.667 32.2941 145.295 32.5866C145.111 34.0045 143.856 35.009 142.496 35.009V35.009ZM155.827 26.9531L153.128 33.5911H153.047L150.257 26.9531H147.724L151.917 36.2294L149.525 41.3912H151.979L158.44 26.9531H155.827V26.9531ZM134.657 36.75H137.012V21.4375H134.657V36.75Z" fill="white"/>
</svg>
