<svg width="128" height="128" viewBox="0 0 128 128" fill="none" xmlns="http://www.w3.org/2000/svg">
<g filter="url(#filter0_d_461_969)">
<rect x="16" y="12" width="96" height="96" rx="10" fill="white"/>
</g>
<path d="M57.7296 28.9375C58.1411 27.8499 58.7069 26.8486 59.547 26.0373C62.9074 22.7399 68.4624 23.5686 70.7427 27.7118C72.4573 30.8538 74.2746 33.9266 76.0406 37.0341C78.9896 42.1958 81.9728 47.3576 84.8875 52.5366C87.3392 56.8697 84.6817 62.3422 79.8125 63.0846C76.8293 63.5334 74.0346 62.1523 72.4916 59.4593C69.9026 54.919 67.2966 50.3787 64.7077 45.8557C64.6562 45.7521 64.5876 45.6658 64.5191 45.5795C64.2447 45.355 64.1247 45.027 63.9533 44.7335C62.8046 42.6965 61.6215 40.6766 60.4728 38.6568C59.7356 37.3448 58.964 36.05 58.2268 34.738C57.5581 33.5641 57.2495 32.2866 57.2838 30.9401C57.3353 30.2495 57.421 29.559 57.7296 28.9375Z" fill="#3C8BD9"/>
<path d="M57.7302 28.9375C57.5759 29.559 57.4387 30.1805 57.4044 30.8365C57.353 32.2866 57.713 33.6332 58.4331 34.8934C60.3191 38.1562 62.205 41.4362 64.0739 44.7163C64.2453 45.0098 64.3825 45.3032 64.5539 45.5794C63.5252 47.3748 62.4965 49.153 61.4507 50.9484C60.0105 53.4516 58.5703 55.972 57.1129 58.4752C57.0444 58.4752 57.0272 58.4407 57.0101 58.3889C56.9929 58.2508 57.0444 58.13 57.0786 57.9918C57.7816 55.4023 57.1987 53.1063 55.4327 51.1383C54.3526 49.9471 52.981 49.2738 51.4036 49.0494C49.3462 48.7559 47.5288 49.2911 45.9 50.5858C45.6085 50.8103 45.42 51.1383 45.077 51.3109C45.0085 51.3109 44.9742 51.2764 44.957 51.2246C45.78 49.7917 46.5858 48.3589 47.4088 46.926C50.8035 40.9874 54.1983 35.0488 57.6101 29.1274C57.6444 29.0583 57.6959 29.0066 57.7302 28.9375Z" fill="#FABC04"/>
<path d="M45.0249 51.2763C45.3507 50.9828 45.6593 50.6721 46.0022 50.3959C50.1684 47.0813 56.4264 49.4809 57.3351 54.729C57.558 55.9892 57.438 57.1977 57.0608 58.4061C57.0436 58.5097 57.0265 58.596 56.9922 58.6996C56.8379 58.9758 56.7007 59.2693 56.5293 59.5455C55.0034 62.0832 52.7574 63.3434 49.8084 63.1535C46.4308 62.9119 43.7733 60.3569 43.3104 56.9732C43.0875 55.3332 43.4133 53.7968 44.2534 52.3812C44.4248 52.0704 44.6306 51.7942 44.8192 51.4835C44.9049 51.4144 44.8706 51.2763 45.0249 51.2763Z" fill="#34A852"/>
<path d="M45.0233 51.2761C44.9547 51.3451 44.9547 51.466 44.8347 51.4832C44.8176 51.3624 44.8861 51.2933 44.9547 51.207L45.0233 51.2761Z" fill="#FABC04"/>
<path d="M56.9933 58.6997C56.9247 58.5789 56.9933 58.4926 57.0618 58.4062C57.079 58.4235 57.1133 58.458 57.1304 58.4753L56.9933 58.6997Z" fill="#E1C025"/>
<path d="M37.1022 82.736V83.492C37.1022 84.892 36.6542 86.026 35.7582 86.894C34.8622 87.762 33.7049 88.196 32.2862 88.196C30.7742 88.196 29.5189 87.706 28.5202 86.726C27.5309 85.7367 27.0362 84.5327 27.0362 83.114C27.0362 81.686 27.5262 80.4773 28.5062 79.488C29.4956 78.4987 30.7182 78.004 32.1742 78.004C33.0889 78.004 33.9242 78.214 34.6802 78.634C35.4362 79.0447 36.0242 79.5953 36.4442 80.286L34.7922 81.238C34.5589 80.8367 34.2042 80.51 33.7282 80.258C33.2616 80.006 32.7389 79.88 32.1602 79.88C31.2269 79.88 30.4569 80.188 29.8502 80.804C29.2529 81.4107 28.9542 82.1807 28.9542 83.114C28.9542 84.038 29.2576 84.8033 29.8642 85.41C30.4802 86.0073 31.2922 86.306 32.3002 86.306C33.0469 86.306 33.6629 86.1427 34.1482 85.816C34.6429 85.48 34.9789 85.0227 35.1562 84.444H32.1882V82.736H37.1022ZM44.3564 87.132C43.6377 87.8413 42.7604 88.196 41.7244 88.196C40.6884 88.196 39.8111 87.8413 39.0924 87.132C38.3831 86.4133 38.0284 85.536 38.0284 84.5C38.0284 83.464 38.3831 82.5913 39.0924 81.882C39.8111 81.1633 40.6884 80.804 41.7244 80.804C42.7604 80.804 43.6377 81.1633 44.3564 81.882C45.0751 82.5913 45.4344 83.464 45.4344 84.5C45.4344 85.536 45.0751 86.4133 44.3564 87.132ZM40.3664 85.886C40.7304 86.25 41.1831 86.432 41.7244 86.432C42.2657 86.432 42.7184 86.25 43.0824 85.886C43.4464 85.522 43.6284 85.06 43.6284 84.5C43.6284 83.94 43.4464 83.478 43.0824 83.114C42.7184 82.75 42.2657 82.568 41.7244 82.568C41.1831 82.568 40.7304 82.75 40.3664 83.114C40.0117 83.478 39.8344 83.94 39.8344 84.5C39.8344 85.06 40.0117 85.522 40.3664 85.886ZM52.6689 87.132C51.9502 87.8413 51.0729 88.196 50.0369 88.196C49.0009 88.196 48.1236 87.8413 47.4049 87.132C46.6956 86.4133 46.3409 85.536 46.3409 84.5C46.3409 83.464 46.6956 82.5913 47.4049 81.882C48.1236 81.1633 49.0009 80.804 50.0369 80.804C51.0729 80.804 51.9502 81.1633 52.6689 81.882C53.3876 82.5913 53.7469 83.464 53.7469 84.5C53.7469 85.536 53.3876 86.4133 52.6689 87.132ZM48.6789 85.886C49.0429 86.25 49.4956 86.432 50.0369 86.432C50.5782 86.432 51.0309 86.25 51.3949 85.886C51.7589 85.522 51.9409 85.06 51.9409 84.5C51.9409 83.94 51.7589 83.478 51.3949 83.114C51.0309 82.75 50.5782 82.568 50.0369 82.568C49.4956 82.568 49.0429 82.75 48.6789 83.114C48.3242 83.478 48.1469 83.94 48.1469 84.5C48.1469 85.06 48.3242 85.522 48.6789 85.886ZM60.3794 81H62.1434V87.664C62.1434 88.7467 61.7841 89.5727 61.0654 90.142C60.3561 90.7113 59.4974 90.996 58.4894 90.996C57.7334 90.996 57.0661 90.8513 56.4874 90.562C55.9181 90.2727 55.4794 89.848 55.1714 89.288L56.7114 88.406C57.0661 89.0593 57.6774 89.386 58.5454 89.386C59.1147 89.386 59.5627 89.2367 59.8894 88.938C60.2161 88.6393 60.3794 88.2147 60.3794 87.664V86.908C59.8474 87.6173 59.1007 87.972 58.1394 87.972C57.1501 87.972 56.3194 87.6267 55.6474 86.936C54.9847 86.236 54.6534 85.3867 54.6534 84.388C54.6534 83.3987 54.9894 82.554 55.6614 81.854C56.3334 81.154 57.1594 80.804 58.1394 80.804C59.1007 80.804 59.8474 81.1587 60.3794 81.868V81ZM57.0054 85.774C57.3787 86.1287 57.8501 86.306 58.4194 86.306C58.9887 86.306 59.4554 86.1287 59.8194 85.774C60.1927 85.41 60.3794 84.948 60.3794 84.388C60.3794 83.8373 60.1927 83.3847 59.8194 83.03C59.4554 82.666 58.9887 82.484 58.4194 82.484C57.8501 82.484 57.3787 82.666 57.0054 83.03C56.6414 83.3847 56.4594 83.8373 56.4594 84.388C56.4594 84.948 56.6414 85.41 57.0054 85.774ZM63.7811 88V77.78H65.5871V88H63.7811ZM68.7661 85.242C69.0087 86.1193 69.6667 86.558 70.7401 86.558C71.4307 86.558 71.9534 86.3247 72.3081 85.858L73.7641 86.698C73.0734 87.6967 72.0561 88.196 70.7121 88.196C69.5547 88.196 68.6261 87.846 67.9261 87.146C67.2261 86.446 66.8761 85.564 66.8761 84.5C66.8761 83.4453 67.2214 82.568 67.9121 81.868C68.6027 81.1587 69.4894 80.804 70.5721 80.804C71.5987 80.804 72.4434 81.1587 73.1061 81.868C73.7781 82.5773 74.1141 83.4547 74.1141 84.5C74.1141 84.7333 74.0907 84.9807 74.0441 85.242H68.7661ZM68.7381 83.842H72.3081C72.2054 83.366 71.9907 83.0113 71.6641 82.778C71.3467 82.5447 70.9827 82.428 70.5721 82.428C70.0867 82.428 69.6854 82.554 69.3681 82.806C69.0507 83.0487 68.8407 83.394 68.7381 83.842ZM85.2588 88L84.6708 86.236H80.7648L80.1768 88H78.0908L81.5208 78.2H83.9148L87.3588 88H85.2588ZM81.3808 84.43H84.0688L82.7248 80.426L81.3808 84.43ZM93.341 78.2H95.147V88H93.341V87.174C92.809 87.8553 92.053 88.196 91.073 88.196C90.1303 88.196 89.323 87.8413 88.651 87.132C87.9883 86.4133 87.657 85.536 87.657 84.5C87.657 83.464 87.9883 82.5913 88.651 81.882C89.323 81.1633 90.1303 80.804 91.073 80.804C92.053 80.804 92.809 81.1447 93.341 81.826V78.2ZM90.009 85.928C90.3823 86.292 90.849 86.474 91.409 86.474C91.969 86.474 92.431 86.292 92.795 85.928C93.159 85.5547 93.341 85.0787 93.341 84.5C93.341 83.9213 93.159 83.45 92.795 83.086C92.431 82.7127 91.969 82.526 91.409 82.526C90.849 82.526 90.3823 82.7127 90.009 83.086C89.645 83.45 89.463 83.9213 89.463 84.5C89.463 85.0787 89.645 85.5547 90.009 85.928ZM98.41 82.988C98.41 83.1747 98.5313 83.3287 98.774 83.45C99.026 83.562 99.3293 83.6647 99.684 83.758C100.039 83.842 100.393 83.954 100.748 84.094C101.103 84.2247 101.401 84.4487 101.644 84.766C101.896 85.0833 102.022 85.48 102.022 85.956C102.022 86.6747 101.751 87.23 101.21 87.622C100.678 88.0047 100.011 88.196 99.208 88.196C97.7706 88.196 96.7906 87.6407 96.268 86.53L97.836 85.648C98.0413 86.2547 98.4986 86.558 99.208 86.558C99.852 86.558 100.174 86.3573 100.174 85.956C100.174 85.7693 100.048 85.62 99.796 85.508C99.5533 85.3867 99.2546 85.2793 98.9 85.186C98.5453 85.0927 98.1906 84.976 97.836 84.836C97.4813 84.696 97.178 84.4767 96.926 84.178C96.6833 83.87 96.562 83.4873 96.562 83.03C96.562 82.3393 96.814 81.798 97.318 81.406C97.8313 81.0047 98.466 80.804 99.222 80.804C99.7913 80.804 100.309 80.9347 100.776 81.196C101.243 81.448 101.611 81.812 101.882 82.288L100.342 83.128C100.118 82.652 99.7446 82.414 99.222 82.414C98.9886 82.414 98.7926 82.4653 98.634 82.568C98.4846 82.6707 98.41 82.8107 98.41 82.988Z" fill="black"/>
<defs>
<filter id="filter0_d_461_969" x="0" y="0" width="128" height="128" filterUnits="userSpaceOnUse" color-interpolation-filters="sRGB">
<feFlood flood-opacity="0" result="BackgroundImageFix"/>
<feColorMatrix in="SourceAlpha" type="matrix" values="0 0 0 0 0 0 0 0 0 0 0 0 0 0 0 0 0 0 127 0" result="hardAlpha"/>
<feOffset dy="4"/>
<feGaussianBlur stdDeviation="8"/>
<feComposite in2="hardAlpha" operator="out"/>
<feColorMatrix type="matrix" values="0 0 0 0 0.579167 0 0 0 0 0.579167 0 0 0 0 0.579167 0 0 0 0.15 0"/>
<feBlend mode="normal" in2="BackgroundImageFix" result="effect1_dropShadow_461_969"/>
<feBlend mode="normal" in="SourceGraphic" in2="effect1_dropShadow_461_969" result="shape"/>
</filter>
</defs>
</svg>
