<svg width="128" height="129" viewBox="0 0 128 129" fill="none" xmlns="http://www.w3.org/2000/svg">
<g filter="url(#filter0_d_591_5641)">
<rect x="16" y="12.5" width="96" height="96" rx="10" fill="white"/>
</g>
<path d="M57.7296 29.4356C58.1411 28.348 58.7069 27.3467 59.547 26.5353C62.9074 23.238 68.4624 24.0666 70.7427 28.2099C72.4573 31.3518 74.2746 34.4247 76.0406 37.5321C78.9896 42.6939 81.9728 47.8556 84.8875 53.0347C87.3392 57.3678 84.6817 62.8403 79.8125 63.5826C76.8293 64.0315 74.0346 62.6504 72.4916 59.9573C69.9026 55.417 67.2966 50.8767 64.7077 46.3537C64.6562 46.2501 64.5876 46.1638 64.5191 46.0775C64.2447 45.8531 64.1247 45.5251 63.9533 45.2316C62.8046 43.1945 61.6215 41.1747 60.4728 39.1549C59.7356 37.8428 58.964 36.5481 58.2268 35.2361C57.5581 34.0622 57.2495 32.7847 57.2838 31.4381C57.3353 30.7476 57.421 30.057 57.7296 29.4356Z" fill="#3C8BD9"/>
<path d="M57.7263 29.4336C57.5719 30.0551 57.4348 30.6766 57.4005 31.3326C57.3491 32.7827 57.7091 34.1292 58.4292 35.3895C60.3152 38.6523 62.2011 41.9323 64.07 45.2124C64.2414 45.5058 64.3786 45.7993 64.55 46.0755C63.5213 47.8709 62.4926 49.6491 61.4467 51.4445C60.0066 53.9477 58.5664 56.4681 57.109 58.9713C57.0404 58.9713 57.0233 58.9368 57.0062 58.885C56.989 58.7469 57.0404 58.626 57.0747 58.4879C57.7777 55.8984 57.1948 53.6024 55.4288 51.6344C54.3487 50.4432 52.977 49.7699 51.3997 49.5455C49.3423 49.252 47.5249 49.7872 45.8961 51.0819C45.6046 51.3064 45.416 51.6344 45.0731 51.807C45.0046 51.807 44.9703 51.7725 44.9531 51.7207C45.7761 50.2878 46.5819 48.855 47.4049 47.4221C50.7996 41.4835 54.1944 35.5448 57.6062 29.6235C57.6405 29.5544 57.692 29.5026 57.7263 29.4336Z" fill="#FABC04"/>
<path d="M45.0249 51.7724C45.3507 51.4789 45.6593 51.1682 46.0022 50.892C50.1684 47.5774 56.4264 49.977 57.3351 55.2251C57.558 56.4853 57.438 57.6938 57.0608 58.9022C57.0436 59.0058 57.0265 59.0921 56.9922 59.1957C56.8379 59.4719 56.7007 59.7654 56.5293 60.0416C55.0034 62.5793 52.7574 63.8395 49.8084 63.6496C46.4308 63.408 43.7733 60.853 43.3104 57.4693C43.0875 55.8293 43.4133 54.2929 44.2534 52.8773C44.4248 52.5665 44.6306 52.2903 44.8192 51.9796C44.9049 51.9105 44.8706 51.7724 45.0249 51.7724Z" fill="#34A852"/>
<path d="M37.1022 83.236V83.992C37.1022 85.392 36.6542 86.526 35.7582 87.394C34.8622 88.262 33.7049 88.696 32.2862 88.696C30.7742 88.696 29.5189 88.206 28.5202 87.226C27.5309 86.2367 27.0362 85.0327 27.0362 83.614C27.0362 82.186 27.5262 80.9773 28.5062 79.988C29.4956 78.9987 30.7182 78.504 32.1742 78.504C33.0889 78.504 33.9242 78.714 34.6802 79.134C35.4362 79.5447 36.0242 80.0953 36.4442 80.786L34.7922 81.738C34.5589 81.3367 34.2042 81.01 33.7282 80.758C33.2616 80.506 32.7389 80.38 32.1602 80.38C31.2269 80.38 30.4569 80.688 29.8502 81.304C29.2529 81.9107 28.9542 82.6807 28.9542 83.614C28.9542 84.538 29.2576 85.3033 29.8642 85.91C30.4802 86.5073 31.2922 86.806 32.3002 86.806C33.0469 86.806 33.6629 86.6427 34.1482 86.316C34.6429 85.98 34.9789 85.5227 35.1562 84.944H32.1882V83.236H37.1022ZM44.3564 87.632C43.6377 88.3413 42.7604 88.696 41.7244 88.696C40.6884 88.696 39.8111 88.3413 39.0924 87.632C38.3831 86.9133 38.0284 86.036 38.0284 85C38.0284 83.964 38.3831 83.0913 39.0924 82.382C39.8111 81.6633 40.6884 81.304 41.7244 81.304C42.7604 81.304 43.6377 81.6633 44.3564 82.382C45.0751 83.0913 45.4344 83.964 45.4344 85C45.4344 86.036 45.0751 86.9133 44.3564 87.632ZM40.3664 86.386C40.7304 86.75 41.1831 86.932 41.7244 86.932C42.2657 86.932 42.7184 86.75 43.0824 86.386C43.4464 86.022 43.6284 85.56 43.6284 85C43.6284 84.44 43.4464 83.978 43.0824 83.614C42.7184 83.25 42.2657 83.068 41.7244 83.068C41.1831 83.068 40.7304 83.25 40.3664 83.614C40.0117 83.978 39.8344 84.44 39.8344 85C39.8344 85.56 40.0117 86.022 40.3664 86.386ZM52.6689 87.632C51.9502 88.3413 51.0729 88.696 50.0369 88.696C49.0009 88.696 48.1236 88.3413 47.4049 87.632C46.6956 86.9133 46.3409 86.036 46.3409 85C46.3409 83.964 46.6956 83.0913 47.4049 82.382C48.1236 81.6633 49.0009 81.304 50.0369 81.304C51.0729 81.304 51.9502 81.6633 52.6689 82.382C53.3876 83.0913 53.7469 83.964 53.7469 85C53.7469 86.036 53.3876 86.9133 52.6689 87.632ZM48.6789 86.386C49.0429 86.75 49.4956 86.932 50.0369 86.932C50.5782 86.932 51.0309 86.75 51.3949 86.386C51.7589 86.022 51.9409 85.56 51.9409 85C51.9409 84.44 51.7589 83.978 51.3949 83.614C51.0309 83.25 50.5782 83.068 50.0369 83.068C49.4956 83.068 49.0429 83.25 48.6789 83.614C48.3242 83.978 48.1469 84.44 48.1469 85C48.1469 85.56 48.3242 86.022 48.6789 86.386ZM60.3794 81.5H62.1434V88.164C62.1434 89.2467 61.7841 90.0727 61.0654 90.642C60.3561 91.2113 59.4974 91.496 58.4894 91.496C57.7334 91.496 57.0661 91.3513 56.4874 91.062C55.9181 90.7727 55.4794 90.348 55.1714 89.788L56.7114 88.906C57.0661 89.5593 57.6774 89.886 58.5454 89.886C59.1147 89.886 59.5627 89.7367 59.8894 89.438C60.2161 89.1393 60.3794 88.7147 60.3794 88.164V87.408C59.8474 88.1173 59.1007 88.472 58.1394 88.472C57.1501 88.472 56.3194 88.1267 55.6474 87.436C54.9847 86.736 54.6534 85.8867 54.6534 84.888C54.6534 83.8987 54.9894 83.054 55.6614 82.354C56.3334 81.654 57.1594 81.304 58.1394 81.304C59.1007 81.304 59.8474 81.6587 60.3794 82.368V81.5ZM57.0054 86.274C57.3787 86.6287 57.8501 86.806 58.4194 86.806C58.9887 86.806 59.4554 86.6287 59.8194 86.274C60.1927 85.91 60.3794 85.448 60.3794 84.888C60.3794 84.3373 60.1927 83.8847 59.8194 83.53C59.4554 83.166 58.9887 82.984 58.4194 82.984C57.8501 82.984 57.3787 83.166 57.0054 83.53C56.6414 83.8847 56.4594 84.3373 56.4594 84.888C56.4594 85.448 56.6414 85.91 57.0054 86.274ZM63.7811 88.5V78.28H65.5871V88.5H63.7811ZM68.7661 85.742C69.0087 86.6193 69.6667 87.058 70.7401 87.058C71.4307 87.058 71.9534 86.8247 72.3081 86.358L73.7641 87.198C73.0734 88.1967 72.0561 88.696 70.7121 88.696C69.5547 88.696 68.6261 88.346 67.9261 87.646C67.2261 86.946 66.8761 86.064 66.8761 85C66.8761 83.9453 67.2214 83.068 67.9121 82.368C68.6027 81.6587 69.4894 81.304 70.5721 81.304C71.5987 81.304 72.4434 81.6587 73.1061 82.368C73.7781 83.0773 74.1141 83.9547 74.1141 85C74.1141 85.2333 74.0907 85.4807 74.0441 85.742H68.7661ZM68.7381 84.342H72.3081C72.2054 83.866 71.9907 83.5113 71.6641 83.278C71.3467 83.0447 70.9827 82.928 70.5721 82.928C70.0867 82.928 69.6854 83.054 69.3681 83.306C69.0507 83.5487 68.8407 83.894 68.7381 84.342ZM85.2588 88.5L84.6708 86.736H80.7648L80.1768 88.5H78.0908L81.5208 78.7H83.9148L87.3588 88.5H85.2588ZM81.3808 84.93H84.0688L82.7248 80.926L81.3808 84.93ZM93.341 78.7H95.147V88.5H93.341V87.674C92.809 88.3553 92.053 88.696 91.073 88.696C90.1303 88.696 89.323 88.3413 88.651 87.632C87.9883 86.9133 87.657 86.036 87.657 85C87.657 83.964 87.9883 83.0913 88.651 82.382C89.323 81.6633 90.1303 81.304 91.073 81.304C92.053 81.304 92.809 81.6447 93.341 82.326V78.7ZM90.009 86.428C90.3823 86.792 90.849 86.974 91.409 86.974C91.969 86.974 92.431 86.792 92.795 86.428C93.159 86.0547 93.341 85.5787 93.341 85C93.341 84.4213 93.159 83.95 92.795 83.586C92.431 83.2127 91.969 83.026 91.409 83.026C90.849 83.026 90.3823 83.2127 90.009 83.586C89.645 83.95 89.463 84.4213 89.463 85C89.463 85.5787 89.645 86.0547 90.009 86.428ZM98.41 83.488C98.41 83.6747 98.5313 83.8287 98.774 83.95C99.026 84.062 99.3293 84.1647 99.684 84.258C100.039 84.342 100.393 84.454 100.748 84.594C101.103 84.7247 101.401 84.9487 101.644 85.266C101.896 85.5833 102.022 85.98 102.022 86.456C102.022 87.1747 101.751 87.73 101.21 88.122C100.678 88.5047 100.011 88.696 99.208 88.696C97.7706 88.696 96.7906 88.1407 96.268 87.03L97.836 86.148C98.0413 86.7547 98.4986 87.058 99.208 87.058C99.852 87.058 100.174 86.8573 100.174 86.456C100.174 86.2693 100.048 86.12 99.796 86.008C99.5533 85.8867 99.2546 85.7793 98.9 85.686C98.5453 85.5927 98.1906 85.476 97.836 85.336C97.4813 85.196 97.178 84.9767 96.926 84.678C96.6833 84.37 96.562 83.9873 96.562 83.53C96.562 82.8393 96.814 82.298 97.318 81.906C97.8313 81.5047 98.466 81.304 99.222 81.304C99.7913 81.304 100.309 81.4347 100.776 81.696C101.243 81.948 101.611 82.312 101.882 82.788L100.342 83.628C100.118 83.152 99.7446 82.914 99.222 82.914C98.9886 82.914 98.7926 82.9653 98.634 83.068C98.4846 83.1707 98.41 83.3107 98.41 83.488Z" fill="black"/>
<defs>
<filter id="filter0_d_591_5641" x="0" y="0.5" width="128" height="128" filterUnits="userSpaceOnUse" color-interpolation-filters="sRGB">
<feFlood flood-opacity="0" result="BackgroundImageFix"/>
<feColorMatrix in="SourceAlpha" type="matrix" values="0 0 0 0 0 0 0 0 0 0 0 0 0 0 0 0 0 0 127 0" result="hardAlpha"/>
<feOffset dy="4"/>
<feGaussianBlur stdDeviation="8"/>
<feComposite in2="hardAlpha" operator="out"/>
<feColorMatrix type="matrix" values="0 0 0 0 0.579167 0 0 0 0 0.579167 0 0 0 0 0.579167 0 0 0 0.15 0"/>
<feBlend mode="normal" in2="BackgroundImageFix" result="effect1_dropShadow_591_5641"/>
<feBlend mode="normal" in="SourceGraphic" in2="effect1_dropShadow_591_5641" result="shape"/>
</filter>
</defs>
</svg>
