<svg width="51" height="49" viewBox="0 0 51 49" fill="none" xmlns="http://www.w3.org/2000/svg">
<path d="M23.4934 0.555221C23.5582 1.5422 23.5438 2.53639 23.4502 3.51617C23.4358 3.63864 23.4285 3.76111 23.4069 3.87638C23.3997 3.93402 23.3925 3.99165 23.3853 4.04929C23.3781 4.13574 23.407 3.91241 23.3853 4.04208C23.3781 4.07811 23.3781 4.12133 23.3709 4.15735C23.3349 4.4023 23.2917 4.64724 23.2485 4.89218C23.1548 5.38207 23.0323 5.87197 22.8883 6.34745C22.8162 6.57078 22.7442 6.79411 22.6649 7.01744C22.6217 7.1255 22.5856 7.23357 22.5352 7.34163C22.528 7.36324 22.4992 7.39927 22.4992 7.42809C22.4992 7.35604 22.5424 7.33443 22.5136 7.38486C22.4848 7.4425 22.4632 7.50012 22.4344 7.55776C22.2615 7.93958 22.0525 8.30701 21.822 8.65281C21.7716 8.73206 21.7139 8.8113 21.6563 8.89055C21.6275 8.93377 21.5915 8.977 21.5626 9.02023C21.5482 9.03463 21.5338 9.05624 21.5266 9.07065C21.5987 8.94098 21.5554 9.03463 21.5338 9.06345C21.4042 9.22915 21.2601 9.39485 21.116 9.55334C20.9719 9.70463 20.8278 9.84872 20.6693 9.9928C20.5973 10.0576 20.518 10.1225 20.4388 10.1873C20.4028 10.2161 20.3668 10.245 20.3307 10.2738C20.2731 10.317 20.4388 10.1873 20.3523 10.2594C20.3235 10.281 20.3019 10.2954 20.2731 10.317C20.0858 10.4539 19.8913 10.5836 19.6895 10.6988C19.4878 10.8141 19.2789 10.9005 19.07 11.0086C19.0772 11.0014 19.1924 10.9582 19.1132 10.987C19.0844 11.0014 19.0556 11.0086 19.0268 11.023C18.9691 11.0446 18.9115 11.0662 18.8467 11.0878C18.7386 11.1239 18.6305 11.1599 18.5153 11.1887C18.2919 11.2535 18.0614 11.2968 17.8308 11.3256C17.7084 11.34 17.5643 11.4697 17.5067 11.5705C17.449 11.6786 17.4274 11.7939 17.4418 11.9163C17.4778 12.1757 17.7012 12.3846 17.9749 12.3846C18.5008 12.3774 19.0267 12.3774 19.5527 12.4134C19.6751 12.4206 19.7904 12.435 19.9129 12.4495C19.9201 12.4495 20.0498 12.4711 19.9633 12.4567C19.8697 12.4422 19.9993 12.4639 20.0137 12.4639C20.0786 12.4711 20.1434 12.4855 20.2083 12.4999C20.4676 12.5503 20.7198 12.6152 20.9647 12.6944C21.0079 12.7088 21.0583 12.7304 21.1016 12.7448C21.1232 12.752 21.152 12.7664 21.1736 12.7736C21.2168 12.7881 21.2601 12.8313 21.1448 12.7592C21.2313 12.8169 21.3393 12.8457 21.433 12.8961C21.6131 12.9898 21.786 13.0906 21.9445 13.2059C21.9877 13.2347 22.0309 13.2635 22.0741 13.2996C22.0886 13.314 22.1102 13.3284 22.1246 13.3356C22.1966 13.386 22.0958 13.314 22.0886 13.3068C22.1606 13.3788 22.2543 13.4436 22.3335 13.5085C22.492 13.6526 22.6433 13.7966 22.7874 13.9551C22.8522 14.0272 22.917 14.0992 22.9747 14.1713C23.0035 14.2073 23.0323 14.2433 23.0684 14.2865C23.1116 14.3442 22.9891 14.1785 23.0539 14.2649C23.0755 14.2937 23.0899 14.3154 23.1116 14.3442C23.234 14.5099 23.3421 14.6828 23.4502 14.8557C23.5582 15.0358 23.6591 15.2231 23.7528 15.4104C23.796 15.5041 23.8392 15.5977 23.8824 15.6914C23.8896 15.713 23.8968 15.7346 23.9112 15.749C23.8536 15.6121 23.8896 15.6914 23.904 15.7274C23.9256 15.785 23.9473 15.8355 23.9689 15.8931C24.1346 16.3253 24.257 16.7648 24.3507 17.2115C24.3795 17.3411 24.4011 17.4636 24.4227 17.5933C24.4299 17.6437 24.4371 17.7014 24.4516 17.7518C24.4588 17.795 24.466 17.831 24.466 17.8743C24.466 17.8526 24.4588 17.831 24.4588 17.8094C24.4588 17.8382 24.466 17.8599 24.466 17.8887C24.4948 18.148 24.5236 18.4002 24.538 18.6595C24.6173 19.8482 24.5452 21.0441 24.466 22.2256C24.4516 22.4922 24.6821 22.7227 24.9343 22.7587C25.2008 22.7948 25.4457 22.6291 25.525 22.3697C26.0941 20.5615 26.1662 18.6523 26.5912 16.8152C26.6849 16.4046 26.7929 15.9939 26.937 15.5905C26.9658 15.5041 27.0019 15.4176 27.0307 15.3384C27.0451 15.2951 27.0739 15.2519 27.0883 15.2015C27.0883 15.2087 27.0379 15.324 27.0739 15.2447C27.0811 15.2231 27.0955 15.1943 27.1027 15.1727C27.182 14.9998 27.2612 14.8341 27.3477 14.6684C27.5206 14.337 27.7223 14.02 27.9456 13.7246C27.96 13.7102 27.9744 13.6886 27.9816 13.6742C27.9096 13.7822 27.9312 13.739 27.9528 13.7102C27.9816 13.6742 28.0105 13.6382 28.0393 13.6021C28.0969 13.5301 28.1617 13.458 28.2266 13.386C28.3491 13.2491 28.4787 13.1195 28.6084 13.0042C28.6877 12.9321 28.7597 12.8673 28.8462 12.8025C28.8606 12.7881 28.875 12.7808 28.8966 12.7664C28.7669 12.8673 28.8606 12.7953 28.8822 12.7736C28.9254 12.7448 28.9614 12.716 29.0047 12.6872C29.1632 12.5791 29.3288 12.4783 29.5017 12.3918C29.545 12.3702 29.5954 12.3486 29.6386 12.327C29.6602 12.3198 29.6747 12.3126 29.6963 12.3054C29.7971 12.2621 29.5882 12.3486 29.6819 12.3126C29.7755 12.2765 29.8692 12.2405 29.97 12.2117C30.0709 12.1829 30.1645 12.1541 30.2654 12.1325C30.3086 12.1253 30.3591 12.1109 30.4023 12.1037C30.4455 12.0964 30.6472 12.0676 30.4599 12.0892C30.604 12.0676 30.7409 12.046 30.8417 11.9307C30.921 11.8443 30.9714 11.7434 30.993 11.621C31.0291 11.376 30.8705 11.0806 30.604 11.0302C30.3951 10.987 30.1862 10.9366 29.9772 10.8717C29.8836 10.8429 29.7971 10.8069 29.7035 10.7781C29.653 10.7565 29.6026 10.7348 29.5522 10.7204C29.7179 10.7853 29.5305 10.706 29.4873 10.6916C29.1055 10.5115 28.7381 10.2954 28.3995 10.0432C28.3851 10.0288 28.3635 10.0144 28.3491 10.0072C28.277 9.94957 28.3779 10.0288 28.3851 10.036C28.3491 10 28.2986 9.97118 28.2554 9.93516C28.169 9.86312 28.0897 9.79829 28.0105 9.72625C27.852 9.58216 27.6935 9.43087 27.5494 9.26517C27.4053 9.10668 27.2684 8.94818 27.1316 8.78248C27.1171 8.76087 27.1027 8.73926 27.0811 8.71765C27.0883 8.72485 27.1604 8.8185 27.1027 8.74646C27.0667 8.70323 27.0379 8.66001 27.0019 8.61679C26.937 8.53034 26.8722 8.43668 26.8146 8.35023C26.5768 7.99722 26.3679 7.6226 26.1806 7.24078C26.1374 7.14712 26.0941 7.06067 26.0509 6.96701C26.0365 6.9454 26.0293 6.91658 26.0221 6.89497C25.9861 6.81572 26.0365 6.92379 26.0365 6.93099C26.0149 6.86615 25.9861 6.80852 25.9644 6.75088C25.8852 6.55637 25.8132 6.35465 25.7411 6.15293C25.4385 5.2668 25.2152 4.35187 25.0351 3.42972C24.9342 2.91822 24.8406 2.39951 24.7614 1.88081C24.7253 1.63586 24.6893 1.39812 24.6533 1.15318C24.6389 1.03071 24.6173 0.915438 24.6029 0.792965C24.5956 0.74974 24.5668 0.548019 24.5956 0.728125C24.5884 0.663287 24.5812 0.605655 24.574 0.540816C24.5524 0.389527 24.5236 0.267051 24.4155 0.158987C24.3219 0.0653316 24.1706 -0.00670749 24.0337 0.000496773C23.8968 0.00770103 23.7455 0.0509231 23.6519 0.158987C23.5582 0.274255 23.4718 0.41834 23.4934 0.555221C23.7456 2.44994 24.0337 4.36627 24.6173 6.18895C25.1792 7.92517 26.0941 9.58216 27.5278 10.742C28.3419 11.3976 29.2784 11.9019 30.3086 12.0964C30.3591 11.7434 30.4023 11.3904 30.4527 11.0374C30.0061 11.0951 29.5954 11.2103 29.1776 11.3904C28.8101 11.5489 28.4715 11.765 28.1545 12.0172C27.535 12.4999 27.0235 13.1267 26.62 13.7967C26.195 14.4955 25.8852 15.2663 25.6763 16.0588C25.4241 16.9953 25.28 17.9607 25.136 18.9189C24.9775 19.9995 24.8118 21.0802 24.4804 22.1248C24.8334 22.1752 25.1864 22.2184 25.5394 22.2689C25.6763 20.1364 25.7988 17.9031 25.0783 15.8499C24.4804 14.1353 23.3061 12.5287 21.5987 11.8083C20.4532 11.3256 19.1997 11.3112 17.9749 11.3256C18.0254 11.6786 18.0686 12.0316 18.119 12.3846C19.9345 12.1325 21.4834 10.9582 22.5424 9.51732C23.7167 7.91798 24.2282 5.90799 24.4732 3.96284C24.6173 2.83177 24.6461 1.69349 24.5668 0.562424C24.5452 0.281458 24.3291 0.00769576 24.0265 0.0221043C23.7527 0.0293085 23.4718 0.252642 23.4934 0.555221Z" fill="#231F20"/>
<path d="M3.48889 15.2017C3.61136 15.742 3.71943 16.2895 3.81308 16.837C3.86351 17.1036 3.90676 17.3701 3.94278 17.6367C3.96439 17.7736 3.98599 17.9033 4.0004 18.0401C4.00761 18.0978 4.0148 18.1626 4.022 18.2202C4.03641 18.3211 4.022 18.2274 4.022 18.213C4.0292 18.2563 4.03642 18.2995 4.03642 18.3499C4.18051 19.4378 4.26694 20.5256 4.31017 21.6207C4.33178 22.0889 4.33181 22.55 4.30299 23.0183C4.29579 23.1263 4.28856 23.2344 4.27415 23.3425C4.26694 23.4001 4.25975 23.4577 4.25255 23.5154C4.24535 23.573 4.26696 23.6162 4.25255 23.501C4.25975 23.537 4.23813 23.5802 4.23813 23.6162C4.20211 23.8396 4.15888 24.0557 4.09404 24.2718C4.06523 24.3799 4.02921 24.4807 3.99319 24.5888C3.97878 24.632 3.94999 24.6825 3.94278 24.7257C3.9716 24.6176 3.97158 24.6681 3.95717 24.6969C3.94276 24.7329 3.92834 24.7617 3.91394 24.7977C3.81308 25.0067 3.69781 25.2012 3.56093 25.3885C3.52491 25.4317 3.4961 25.4821 3.46008 25.5254C3.46729 25.511 3.53214 25.4317 3.4745 25.5038C3.4601 25.5254 3.44567 25.547 3.42406 25.5614C3.35202 25.655 3.27276 25.7487 3.19351 25.8424C3.04222 26.0153 2.87654 26.1882 2.71085 26.3539C2.53074 26.534 2.34341 26.6997 2.14889 26.8654C2.04803 26.9518 1.94719 27.0383 1.83912 27.1175C1.81751 27.1391 1.78869 27.1607 1.76708 27.1751C1.75267 27.1823 1.66622 27.2544 1.73106 27.204C1.8031 27.1535 1.70224 27.2256 1.69504 27.2328C1.66622 27.2544 1.63021 27.276 1.6014 27.3048C1.16914 27.6218 0.722477 27.9172 0.268609 28.1981C0.0740935 28.3206 -0.0556113 28.58 0.0236356 28.8105C0.0956782 29.0266 0.304616 29.2211 0.542356 29.2067C0.996225 29.1779 1.45009 29.1563 1.91117 29.1779C2.21374 29.1923 2.51632 29.2212 2.8117 29.2572C2.9774 29.2716 3.13588 29.286 3.30157 29.3004C3.352 29.3004 3.40244 29.3076 3.45287 29.3148C3.46728 29.3148 3.47448 29.3148 3.48889 29.322C3.54653 29.3292 3.53211 29.3292 3.44566 29.3148C3.46007 29.322 3.49612 29.322 3.51053 29.322C3.62579 29.3436 3.74105 29.3652 3.85632 29.4013C3.95718 29.4301 4.05804 29.4661 4.1517 29.5021C4.18051 29.5093 4.20213 29.5237 4.23095 29.5309C4.30299 29.5597 4.10125 29.4733 4.20932 29.5237C4.26695 29.5525 4.3174 29.5742 4.37504 29.603C4.57676 29.7038 4.76406 29.8191 4.94417 29.9488C4.96578 29.9632 4.98738 29.9848 5.009 29.9992C5.08824 30.0568 4.98739 29.9848 4.98019 29.9776C5.0018 30.0136 5.08103 30.0568 5.10985 30.0857C5.20351 30.1649 5.28997 30.2442 5.37642 30.3234C5.54212 30.4819 5.70782 30.6548 5.85191 30.8277C5.92395 30.9141 5.99599 31.0006 6.06083 31.0871C6.14007 31.1879 5.98878 30.9862 6.06083 31.0871C6.07523 31.1087 6.08965 31.1231 6.10406 31.1447C6.14728 31.2023 6.19049 31.26 6.22651 31.3176C6.36339 31.5121 6.49306 31.7066 6.61553 31.9083C6.88209 32.3478 7.12705 32.8089 7.35038 33.2699C7.47285 33.5221 7.59533 33.7814 7.71059 34.0336C7.73941 34.0912 7.76103 34.1489 7.78985 34.2065C7.80426 34.2353 7.81867 34.2713 7.83308 34.3002C7.8691 34.3938 7.83307 34.3074 7.82587 34.2857C7.89071 34.4298 7.94113 34.5739 7.99876 34.718C8.46704 35.8995 8.82725 37.117 9.0794 38.3634C9.12983 38.6299 9.42522 38.7812 9.67017 38.7524C9.95834 38.7164 10.1096 38.493 10.1384 38.2193C10.3906 36.0508 9.84305 33.8967 9.97272 31.721C9.97993 31.5481 10.0015 31.3752 10.016 31.2095C10.0232 31.1663 10.0304 31.1231 10.0304 31.0798C10.0376 31.0078 10.0088 31.2311 10.0232 31.1231C10.0232 31.1015 10.0304 31.0871 10.0304 31.0654C10.0448 30.9718 10.0592 30.8781 10.0736 30.7845C10.1384 30.4171 10.2249 30.0496 10.3257 29.6966C10.3834 29.5093 10.441 29.322 10.5058 29.1347C10.5346 29.0482 10.5635 28.969 10.5995 28.8898C10.6139 28.8465 10.6355 28.8033 10.6499 28.7601C10.6859 28.6808 10.6355 28.7961 10.6283 28.8033C10.6427 28.7745 10.6499 28.7457 10.6643 28.7169C10.8156 28.3783 10.9885 28.0469 11.1974 27.7371C11.2479 27.6578 11.3055 27.5786 11.3632 27.4993C11.3704 27.4849 11.4352 27.4057 11.3703 27.4849C11.3127 27.5642 11.3776 27.4777 11.392 27.4633C11.4208 27.4273 11.4496 27.3913 11.4856 27.3552C11.6081 27.2112 11.745 27.0743 11.8891 26.9518C11.9251 26.9158 11.9683 26.887 12.0043 26.8582C12.0548 26.8149 11.9035 26.9302 11.9611 26.8942C11.9827 26.8798 12.0043 26.8654 12.0259 26.8437C12.1052 26.7933 12.1772 26.7429 12.2637 26.6925C12.3429 26.6492 12.4222 26.606 12.5014 26.57C12.5158 26.5628 12.6023 26.5268 12.5086 26.5628C12.4222 26.5988 12.4942 26.57 12.5158 26.5628C12.5663 26.5412 12.6167 26.5268 12.6671 26.5124C12.8832 26.4403 13.0778 26.2314 13.0633 25.9936C13.0489 25.7487 12.9049 25.5542 12.6671 25.4749C11.745 25.1652 10.7796 25.0355 9.85027 24.7401C9.74221 24.7041 9.63415 24.6681 9.52608 24.6248C9.50447 24.6176 9.48283 24.6104 9.46122 24.6032C9.44681 24.596 9.35316 24.5456 9.43241 24.5888C9.51165 24.632 9.418 24.5816 9.4036 24.5744C9.37478 24.56 9.33877 24.5456 9.30995 24.5312C9.10103 24.4375 8.9065 24.3223 8.71919 24.1926C8.69037 24.171 8.66154 24.1494 8.63273 24.1349C8.56789 24.0917 8.64716 24.1566 8.66157 24.1566C8.63996 24.1638 8.54627 24.0629 8.52466 24.0413C8.43101 23.9548 8.33736 23.8684 8.25091 23.7747C8.17887 23.6955 8.10683 23.609 8.03479 23.5226C7.99876 23.4794 7.96274 23.4361 7.92672 23.3929C8.02038 23.501 7.96276 23.4361 7.94114 23.4073C7.91953 23.3785 7.89792 23.3425 7.8691 23.3137C7.60975 22.9607 7.3936 22.586 7.19908 22.197C7.14866 22.0961 7.10544 22.0025 7.06221 21.9016C7.0406 21.8584 7.019 21.8152 7.00459 21.7647C6.99018 21.7431 6.98298 21.7143 6.96857 21.6927C6.92534 21.5918 7.0118 21.7936 6.96857 21.6999C6.88212 21.491 6.80284 21.2748 6.7236 21.0659C6.39941 20.1726 6.14726 19.2505 5.8663 18.3427C5.47727 17.118 5.02341 15.9149 4.43266 14.7766C4.30298 14.5245 3.92837 14.4308 3.69063 14.5821C3.43128 14.7478 3.35922 15.0504 3.4961 15.3241C3.64019 15.5979 3.77708 15.8789 3.90676 16.1598C3.96439 16.2895 4.02922 16.4192 4.07965 16.5489C4.07245 16.5344 4.03642 16.4408 4.07244 16.5345C4.08685 16.5633 4.10127 16.5993 4.11568 16.6281C4.14449 16.7001 4.17329 16.7722 4.20211 16.837C4.40383 17.3413 4.58394 17.8528 4.74964 18.3715C5.05222 19.3009 5.31158 20.2446 5.62857 21.1668C5.93115 22.0457 6.29857 22.9174 6.82448 23.6883C7.10545 24.0989 7.42242 24.5168 7.81145 24.8338C8.22929 25.1868 8.69039 25.4389 9.20189 25.6334C10.2249 26.0297 11.3344 26.1449 12.3718 26.4907C12.3718 26.1449 12.3718 25.7991 12.3718 25.4461C10.8012 25.9504 9.90069 27.5137 9.4036 28.9834C9.14424 29.7399 8.98576 30.5323 8.90651 31.3248C8.80565 32.3478 8.87768 33.3852 8.96413 34.4082C9.06499 35.669 9.18747 36.9297 9.04338 38.1905C9.39639 38.14 9.74941 38.0968 10.1024 38.0464C9.87189 36.9153 9.54767 35.7986 9.14423 34.718C8.73359 33.6302 8.25091 32.5567 7.66736 31.5481C7.17027 30.698 6.57233 29.8695 5.80868 29.2428C5.39083 28.9042 4.95855 28.6304 4.45426 28.4359C4.00759 28.2558 3.53933 28.2053 3.06385 28.1621C2.71804 28.1333 2.37946 28.0901 2.03365 28.0685C1.52215 28.0397 1.01784 28.0613 0.506335 28.0901C0.59999 28.4287 0.686427 28.7601 0.780083 29.0987C1.63019 28.5728 2.45868 27.9964 3.20072 27.312C3.93556 26.6276 4.61998 25.8424 4.9874 24.8986C5.34041 23.9909 5.39803 22.9751 5.37642 22.0025C5.35481 20.9002 5.26834 19.798 5.13866 18.7101C4.98737 17.4278 4.77124 16.1454 4.49028 14.8847C4.42544 14.6109 4.09406 14.4236 3.82751 14.51C3.57536 14.6325 3.41685 14.9063 3.48889 15.2017Z" fill="#231F20"/>
<path d="M31.8298 29.7106C31.9307 30.1068 32.01 30.503 32.0676 30.9137C32.0604 30.8633 32.0532 30.82 32.046 30.7696C32.154 31.5693 32.1684 32.3906 32.0604 33.1902C32.0676 33.1398 32.0748 33.0966 32.082 33.0461C31.9955 33.6945 31.8298 34.3285 31.5777 34.9265C31.5993 34.8832 31.6137 34.84 31.6353 34.7968C31.5129 35.085 31.376 35.3659 31.2103 35.6325C31.131 35.7694 31.0374 35.9062 30.9437 36.0359C30.9005 36.0935 30.8573 36.1512 30.8141 36.2088C30.9293 36.0575 30.8357 36.18 30.8068 36.216C30.778 36.252 30.7492 36.2881 30.7204 36.3169C30.5187 36.5618 30.2881 36.7852 30.0504 36.9941C29.9928 37.0445 29.9279 37.0949 29.8703 37.1454C29.8343 37.1742 29.7118 37.2678 29.8631 37.1526C29.8271 37.1742 29.7983 37.203 29.7622 37.2318C29.6253 37.3327 29.4813 37.4263 29.3372 37.52C29.0634 37.6857 28.7896 37.8298 28.4943 37.9522C28.5375 37.9306 28.5807 37.9162 28.6239 37.8946C28.415 37.9811 28.2061 38.0675 27.9972 38.1612C27.8531 38.226 27.7162 38.2836 27.6082 38.3917C27.3632 38.6222 27.4064 39.0185 27.6586 39.213C27.7882 39.3138 27.9612 39.3427 28.1125 39.3859C28.3718 39.4651 28.6311 39.5588 28.8833 39.6669C28.8401 39.6452 28.7969 39.6308 28.7536 39.6092C29.438 39.9046 30.1008 40.272 30.6916 40.7187C30.706 40.7331 30.7204 40.7403 30.7348 40.7547C30.6123 40.661 30.6628 40.7043 30.6916 40.7187C30.7276 40.7475 30.7564 40.7691 30.7924 40.7979C30.8573 40.8484 30.9221 40.906 30.9797 40.9564C31.0878 41.0573 31.1959 41.1581 31.2967 41.2734C31.3472 41.3238 31.3904 41.3815 31.4408 41.4391C31.4624 41.4679 31.484 41.4967 31.5056 41.5256C31.5273 41.5544 31.5633 41.6048 31.4624 41.4751C31.4769 41.4967 31.4912 41.5111 31.5056 41.5328C31.5921 41.648 31.6786 41.7705 31.7506 41.9002C31.9379 42.1956 32.0892 42.5125 32.2333 42.8367C32.2117 42.7935 32.1973 42.7503 32.1757 42.7071C32.6944 43.9462 32.9321 45.279 33.1626 46.5974C33.2203 46.9504 33.2851 47.3034 33.3499 47.6564C33.3715 47.7789 33.494 47.9229 33.5949 47.9806C33.7029 48.0382 33.8182 48.0598 33.9407 48.0454C34.2073 48.0094 34.4018 47.7861 34.409 47.5123C34.4306 46.9143 34.4522 46.3164 34.4738 45.7112C34.4954 45.1349 34.4954 44.5513 34.5747 43.975C34.5675 44.0254 34.5603 44.0687 34.5531 44.1191C34.6251 43.622 34.7332 43.1249 34.8628 42.6422C34.9277 42.4045 34.9997 42.1667 35.0717 41.929C35.1366 41.7345 35.1942 41.5328 35.2735 41.3382C35.2519 41.3815 35.2374 41.4247 35.2158 41.4679C35.3167 41.2374 35.4464 41.0213 35.5977 40.8195C35.6193 40.7907 35.6409 40.7619 35.6625 40.7259C35.7129 40.661 35.5688 40.8412 35.6481 40.7403C35.6985 40.6755 35.749 40.6178 35.7994 40.553C35.893 40.4377 35.9939 40.3296 36.0948 40.2216C36.3109 39.9983 36.5414 39.7821 36.7792 39.5732C36.8368 39.5228 36.8944 39.4795 36.9521 39.4291C36.9809 39.4075 37.0097 39.3859 37.0385 39.3571C37.0529 39.3427 37.0673 39.3283 37.0889 39.321C37.0673 39.3355 36.9809 39.4075 37.0457 39.3499C37.161 39.2634 37.2835 39.177 37.3987 39.0905C37.6365 38.932 37.8814 38.7807 38.148 38.6727C38.1048 38.6943 38.0615 38.7087 38.0183 38.7303C38.0399 38.7231 38.0615 38.7159 38.0831 38.7015C38.2128 38.6511 38.3353 38.579 38.4073 38.4565C38.465 38.3485 38.4866 38.2332 38.4722 38.1107C38.4361 37.8442 38.2128 37.6425 37.9391 37.6425C37.8166 37.6425 37.6941 37.6353 37.5789 37.6208C37.6293 37.6281 37.6725 37.6353 37.7229 37.6425C37.4852 37.6064 37.2474 37.5416 37.0241 37.4479C37.0673 37.4696 37.1106 37.484 37.1538 37.5056C37.0169 37.4479 36.8872 37.3831 36.7647 37.3039C36.6999 37.2678 36.6423 37.2246 36.5775 37.1886C36.5486 37.167 36.5126 37.1454 36.4838 37.1238C36.4694 37.1165 36.455 37.1021 36.4406 37.0949C36.4334 37.0877 36.4262 37.0805 36.419 37.0805C36.3685 37.0373 36.491 37.1382 36.4838 37.131C36.2388 36.9292 36.0083 36.7131 35.7922 36.4754C35.7417 36.4105 35.6841 36.3529 35.6337 36.2881C35.6121 36.2592 35.5833 36.2232 35.5617 36.1944C35.504 36.1224 35.6193 36.2664 35.5977 36.2376C35.5833 36.216 35.5689 36.2016 35.5544 36.18C35.4464 36.0431 35.3527 35.899 35.2519 35.7549C35.0501 35.4524 34.8701 35.1354 34.7044 34.8112C34.5098 34.4366 34.3297 34.0475 34.164 33.6585C34.1857 33.7017 34.2 33.745 34.2217 33.7882C33.739 32.6427 33.3643 31.4468 33.0546 30.2365C32.9825 29.9555 32.9177 29.6818 32.8528 29.4008C32.788 29.127 32.4566 28.9397 32.19 29.0262C31.9163 29.1414 31.7578 29.4152 31.8298 29.7106C31.9811 30.3662 32.1468 31.0217 32.3413 31.6701C32.5647 32.4266 32.824 33.183 33.1194 33.9179C33.4364 34.6887 33.7894 35.4524 34.2361 36.1584C34.6323 36.7924 35.1078 37.4119 35.6913 37.8802C35.9723 38.1035 36.2677 38.3125 36.5991 38.4565C36.9665 38.615 37.3267 38.7159 37.7301 38.7519C37.8094 38.7591 37.8886 38.7591 37.9607 38.7591C37.9102 38.4061 37.867 38.0531 37.8166 37.7001C37.2258 37.9306 36.7143 38.2908 36.2244 38.6871C35.7345 39.0833 35.2735 39.53 34.8845 40.0271C34.6899 40.272 34.5098 40.517 34.3657 40.7979C34.2 41.1293 34.092 41.4895 33.9839 41.8425C33.7246 42.6998 33.5156 43.5716 33.4508 44.4649C33.4148 44.9692 33.4076 45.4807 33.3932 45.985C33.3788 46.5037 33.3571 47.0152 33.3427 47.5339C33.6957 47.4835 34.0488 47.4402 34.4018 47.3898C34.1424 45.9562 33.9479 44.5009 33.4868 43.1177C33.2491 42.4189 32.9537 41.7201 32.5214 41.1149C32.3053 40.8051 32.0604 40.517 31.7866 40.2576C31.4696 39.9694 31.1166 39.7101 30.7564 39.4795C30.3602 39.2202 29.9423 38.9897 29.5101 38.7951C29.2651 38.6799 29.013 38.579 28.7536 38.4854C28.5447 38.4133 28.3358 38.3557 28.1268 38.2908C28.1701 38.3125 28.2133 38.3269 28.2565 38.3485C28.3214 38.4133 28.379 38.4709 28.4438 38.5358C28.4654 38.579 28.4799 38.6222 28.5015 38.6655C28.5087 38.7159 28.5159 38.7591 28.5231 38.8095C28.5159 38.86 28.5087 38.9032 28.5015 38.9536C28.4799 38.9969 28.4654 39.0401 28.4438 39.0833C28.4006 39.1482 28.343 39.2274 28.2781 39.2562C28.2926 39.249 28.2998 39.2418 28.3142 39.2346C28.3502 39.213 28.3862 39.1986 28.4222 39.177C28.5231 39.1265 28.6311 39.0833 28.7392 39.0401C28.696 39.0617 28.6528 39.0761 28.6095 39.0977C28.9049 38.9752 29.2075 38.8528 29.4957 38.7015C29.8271 38.5286 30.1368 38.3269 30.4322 38.1035C31.059 37.6208 31.5993 37.0517 32.0244 36.3889C32.8456 35.1282 33.2059 33.6009 33.2131 32.1096C33.2131 31.2163 33.0906 30.3157 32.8744 29.4512C32.8024 29.1775 32.4854 28.9829 32.2117 29.0766C31.9235 29.1414 31.7506 29.4152 31.8298 29.7106Z" fill="#231F20"/>
<path d="M39.131 10.5978C39.1886 10.8644 39.2391 11.1309 39.2823 11.3975C39.3039 11.5272 39.3255 11.664 39.3471 11.8009C39.3543 11.8442 39.3903 12.0459 39.3615 11.8874C39.3759 11.9666 39.3832 12.0459 39.3904 12.1179C39.4552 12.6654 39.5056 13.2202 39.5345 13.7749C39.5921 14.8916 39.5849 16.0154 39.5056 17.1249C39.484 17.3986 39.4624 17.6724 39.4408 17.9534C39.4264 18.0758 39.4192 18.2055 39.4048 18.328C39.3976 18.3856 39.3904 18.4433 39.3832 18.5081C39.3832 18.5369 39.3759 18.5657 39.3759 18.5873C39.3687 18.6306 39.376 18.609 39.3832 18.5225C39.3832 18.5441 39.3759 18.5657 39.3759 18.5873C39.3111 19.0484 39.2102 19.5023 39.0878 19.9489C39.0229 20.1723 38.9509 20.3956 38.8716 20.6117C38.8284 20.7198 38.7924 20.8279 38.7492 20.9359C38.742 20.9647 38.7276 20.9864 38.7204 21.0152C38.7636 20.8783 38.742 20.9575 38.7276 20.9936C38.6987 21.0512 38.6771 21.116 38.6483 21.1737C38.4538 21.5987 38.2305 22.0022 37.9639 22.3912C37.8919 22.4993 37.8126 22.6073 37.7334 22.7082C37.7118 22.737 37.6685 22.773 37.755 22.6794C37.7334 22.7082 37.7046 22.737 37.6829 22.7658C37.6397 22.8162 37.6037 22.8667 37.5605 22.9171C37.3948 23.1116 37.2219 23.2917 37.0346 23.4718C36.9409 23.5583 36.8473 23.6447 36.7464 23.7312C36.696 23.7744 36.6383 23.8104 36.5951 23.8537C36.6887 23.76 36.6527 23.8104 36.6167 23.8392C36.5879 23.8609 36.5591 23.8825 36.5231 23.9041C36.3141 24.0554 36.0908 24.1995 35.8603 24.3219C35.6586 24.43 35.5433 24.711 35.6153 24.9343C35.6441 25.0207 35.6874 25.1072 35.7522 25.172C35.8315 25.2585 36.0116 25.3449 36.134 25.3305C36.6167 25.2729 37.0994 25.2441 37.5821 25.2585C37.8198 25.2657 38.0504 25.2801 38.2881 25.3017C38.3457 25.3089 38.4106 25.3161 38.4682 25.3233C38.5114 25.3305 38.7276 25.3593 38.5402 25.3305C38.6627 25.3521 38.7852 25.3665 38.9077 25.3882C39.3759 25.4674 39.8442 25.5827 40.2981 25.7268C40.5286 25.7988 40.7591 25.8781 40.9825 25.9717C41.0329 25.9933 41.0761 26.0077 41.1266 26.0293C41.1554 26.0437 41.1842 26.051 41.213 26.0654C41.0617 26.0077 41.1626 26.0437 41.1986 26.0582C41.3139 26.1086 41.422 26.159 41.5372 26.2094C41.9767 26.4184 42.4017 26.6489 42.8052 26.9083C43.0069 27.0379 43.2014 27.1676 43.3887 27.3117C43.4392 27.3477 43.4896 27.3837 43.54 27.4198C43.5616 27.4414 43.5904 27.4558 43.612 27.4774C43.4968 27.3909 43.5472 27.427 43.576 27.4486C43.6841 27.535 43.785 27.6143 43.8858 27.7007C44.246 28.0033 44.5918 28.3347 44.9088 28.6805C45.0745 28.8606 45.233 29.0479 45.3915 29.2424C45.4203 29.2857 45.4563 29.3217 45.4851 29.3649C45.3699 29.228 45.5068 29.3937 45.5284 29.4298C45.6004 29.5306 45.6725 29.6315 45.7445 29.7323C46.0471 30.1718 46.3209 30.6329 46.5514 31.1083C46.609 31.2308 46.6666 31.3533 46.7171 31.4686C46.7603 31.5694 46.6666 31.3461 46.7099 31.4541C46.7243 31.4902 46.7387 31.5334 46.7531 31.5694C46.7747 31.627 46.7963 31.6847 46.8179 31.7423C46.9188 32.0017 47.0052 32.2682 47.0773 32.5348C47.1565 32.8085 47.4663 33.0031 47.7401 32.9094C47.8698 32.8662 47.9994 32.7869 48.0643 32.6645C48.1363 32.5276 48.1435 32.3979 48.1219 32.2466C48.1219 32.2394 48.1003 32.1025 48.1147 32.189C48.1291 32.2754 48.1075 32.1458 48.1075 32.1386C48.1003 32.0881 48.0931 32.0377 48.0859 31.9873C48.0715 31.872 48.0571 31.7567 48.0499 31.6415C48.0355 31.4614 48.021 31.2812 48.0138 31.1011C48.0066 30.8202 48.0138 30.532 48.0066 30.251C48.0066 29.898 47.985 29.5522 47.949 29.1992C47.9202 28.9327 47.8842 28.6661 47.8482 28.3995C47.8265 28.241 47.8049 28.0826 47.7833 27.9169C47.7761 27.888 47.7761 27.8592 47.7689 27.8304C47.7473 27.6935 47.7833 27.9169 47.7689 27.8304C47.7617 27.7512 47.7473 27.6791 47.7401 27.5999C47.6753 27.0884 47.6176 26.5697 47.6032 26.051C47.596 25.7844 47.596 25.525 47.6176 25.2585C47.6248 25.136 47.632 25.0063 47.6536 24.8839C47.6248 25.0351 47.6681 24.8118 47.6681 24.783C47.6825 24.711 47.6897 24.6461 47.7041 24.5741C47.7473 24.3508 47.8121 24.1346 47.8842 23.9257C47.913 23.832 47.949 23.7384 47.985 23.6447C47.9994 23.6015 48.0139 23.5583 48.0355 23.5223C48.0427 23.4934 48.0571 23.4718 48.0643 23.443C48.1147 23.3277 48.0427 23.5006 48.0643 23.4502C48.2372 23.0684 48.4317 22.701 48.6622 22.3552C48.7271 22.2615 48.8207 22.1607 48.8784 22.0598C48.8712 22.067 48.7991 22.1607 48.8568 22.0886C48.8784 22.0598 48.9 22.0382 48.9216 22.0094C48.9576 21.9661 48.9936 21.9229 49.0297 21.8797C49.1809 21.7068 49.3394 21.5411 49.5124 21.3826C49.5988 21.3033 49.6924 21.2241 49.7861 21.1449C49.8581 21.0872 49.7645 21.1665 49.7573 21.1665C49.7861 21.1521 49.8077 21.1232 49.8365 21.1088C49.887 21.0728 49.9374 21.0368 49.9806 21.0008C50.1751 20.8639 50.3769 20.7486 50.593 20.6406C50.7947 20.5397 50.91 20.2443 50.8379 20.0282C50.7587 19.7905 50.5642 19.6464 50.3192 19.632C50.0671 19.6176 49.8149 19.5959 49.5628 19.5671C49.5051 19.5599 49.4475 19.5527 49.3899 19.5455C49.361 19.5455 49.3322 19.5311 49.3034 19.5311C49.4475 19.5239 49.3538 19.5383 49.3106 19.5311C49.1809 19.5095 49.0513 19.4951 48.9288 19.4735C48.4389 19.387 47.9562 19.279 47.4879 19.1421C47.2502 19.07 47.0197 18.998 46.7891 18.9115C46.6811 18.8683 46.573 18.8323 46.4577 18.7891C46.4433 18.7819 46.292 18.7242 46.292 18.7242C46.3136 18.7314 46.3353 18.7458 46.3569 18.753C46.3353 18.7458 46.3136 18.7314 46.292 18.7242C46.2632 18.7098 46.2272 18.6954 46.1984 18.681C45.7445 18.4793 45.3123 18.2487 44.8944 17.9822C44.6855 17.8453 44.4766 17.7084 44.2821 17.5571C44.2604 17.5427 44.246 17.5283 44.2244 17.5139C44.3469 17.6004 44.246 17.5355 44.2244 17.5139C44.1812 17.4779 44.1307 17.4419 44.0875 17.4058C43.9867 17.3266 43.893 17.2401 43.7994 17.1537C43.6192 16.988 43.4392 16.8151 43.2735 16.635C43.1006 16.4477 42.9492 16.246 42.7835 16.0586C42.8844 16.1739 42.762 16.0298 42.7403 15.9938C42.7043 15.9434 42.6683 15.9002 42.6323 15.8497C42.553 15.7417 42.481 15.6336 42.4089 15.5255C42.2649 15.3094 42.1352 15.0861 42.0055 14.8627C41.7534 14.4161 41.53 13.955 41.3211 13.4795C41.3139 13.4579 41.2995 13.4363 41.2923 13.4147C41.2851 13.3931 41.2707 13.3715 41.2635 13.3498C41.2923 13.4219 41.2995 13.4291 41.2779 13.3787C41.249 13.3138 41.2202 13.2418 41.1914 13.1769C41.141 13.0473 41.0906 12.9176 41.0401 12.7879C40.9393 12.5214 40.8384 12.2476 40.7448 11.981C40.5502 11.4263 40.3701 10.8716 40.19 10.3169C40.1036 10.0503 39.8082 9.84858 39.5272 9.94223C39.2391 10.0215 39.0374 10.3096 39.131 10.5978C39.7794 12.6222 40.4566 14.7114 41.7173 16.4477C42.3585 17.3338 43.1294 18.0974 44.0371 18.7242C44.8944 19.315 45.8526 19.7616 46.8396 20.0858C47.9634 20.4532 49.1377 20.655 50.3192 20.7198C50.2256 20.3812 50.1391 20.0498 50.0455 19.7112C48.4101 20.5253 47.2718 22.1462 46.7747 23.8825C46.4722 24.9415 46.4865 26.0438 46.609 27.1244C46.645 27.427 46.6811 27.7223 46.7243 28.0249C46.7315 28.097 46.7459 28.1618 46.7531 28.2338C46.7603 28.2627 46.7603 28.2915 46.7675 28.3203C46.7891 28.4572 46.7531 28.2338 46.7675 28.3275C46.7891 28.4644 46.8035 28.6085 46.8251 28.7453C46.8756 29.1704 46.926 29.5954 46.9332 30.0205C46.9404 30.3447 46.9332 30.6689 46.9404 30.9931C46.9548 31.5046 47.0125 32.0161 47.0845 32.5276C47.4303 32.4339 47.7761 32.3331 48.1291 32.2394C47.5744 30.2799 46.4217 28.5076 44.9088 27.1604C43.3959 25.806 41.5228 24.819 39.5345 24.4084C38.425 24.1778 37.2723 24.1058 36.1485 24.2499C36.2421 24.5885 36.3285 24.9199 36.4222 25.2585C38.1944 24.2859 39.3903 22.5353 40.0171 20.6478C40.3413 19.668 40.4854 18.6522 40.5646 17.622C40.6583 16.4837 40.6871 15.3454 40.6439 14.2072C40.5935 12.9032 40.4566 11.5992 40.19 10.3241C40.1324 10.0503 39.7938 9.86298 39.5272 9.94944C39.2175 10.0287 39.0734 10.3024 39.131 10.5978Z" fill="#231F20"/>
</svg>
