<svg width="88" height="100" viewBox="0 0 88 100" fill="none" xmlns="http://www.w3.org/2000/svg">
<path d="M59.3175 2.31858C64.908 5.96126 69.2649 11.3736 71.8367 17.5197C74.4171 23.7027 75.239 30.5667 73.8686 37.1494C72.5421 43.5201 69.1878 49.4159 64.6078 54.0137C62.3186 56.3163 59.6917 58.3017 56.8424 59.8654C53.9727 61.4416 50.8083 62.6518 47.5706 63.1805C44.2354 63.7241 40.5969 63.5311 37.6921 61.6227C34.6279 59.5963 32.327 56.4141 31.0568 52.992C29.7764 49.5257 29.2465 45.6828 29.8616 42.0236C30.1355 40.3997 30.5851 38.797 31.4442 37.3862C32.2073 36.1297 33.225 35.0001 34.3677 34.0744C36.5084 32.3341 39.4928 30.9175 42.2879 31.7881C43.7274 32.2369 44.9828 33.2951 46.0534 34.3266C47.2955 35.5276 48.4008 36.908 49.2604 38.3999C50.1075 39.8715 50.6377 41.5488 51.123 43.1666C51.6585 44.9668 52.0689 46.7962 52.3615 48.653C52.9375 52.3609 53.0502 56.1456 52.6705 59.882C52.3013 63.5306 51.526 67.2349 50.1285 70.6338C48.788 73.9108 46.7891 76.86 44.369 79.4337C38.9893 85.1646 31.8116 88.7062 24.5006 91.3086C22.6083 91.982 20.7022 92.5965 18.782 93.1833C18.3913 93.3053 17.9617 92.9939 17.8743 92.6184C17.7766 92.1987 18.0485 91.8327 18.4392 91.7107C25.807 89.4521 33.2866 86.7406 39.4069 81.9239C42.024 79.8631 44.3827 77.459 46.2466 74.6965C48.1557 71.8615 49.3764 68.7366 50.1893 65.4271C51.8933 58.5106 51.7713 51.1189 49.8638 44.2592C49.4273 42.6843 48.9459 41.05 48.1884 39.5964C47.4627 38.213 46.4948 36.9559 45.4183 35.8327C44.477 34.8566 43.2975 33.7573 42.0432 33.3042C40.9404 32.9012 39.7926 33.0054 38.6556 33.3555C36.1674 34.1366 33.8997 36.1315 32.6015 38.3897C31.8543 39.6813 31.4698 41.23 31.2732 42.7195C31.0432 44.4651 31.0693 46.2442 31.3253 47.9775C31.8289 51.4073 33.0858 54.7394 35.3178 57.4254C36.3878 58.7208 37.6593 59.915 39.1369 60.7275C40.471 61.457 41.9817 61.8116 43.4948 61.9095C46.6381 62.1091 49.8198 61.3063 52.7231 60.1414C55.5766 58.9959 58.2683 57.4223 60.6761 55.4957C65.4673 51.6714 69.2236 46.5358 71.276 40.749C73.3898 34.7926 73.5241 28.3347 71.8663 22.2474C70.2136 16.1822 66.8258 10.5986 62.1522 6.39325C61.0136 5.36989 59.7965 4.44245 58.5154 3.60749C57.7064 3.06624 58.5028 1.78641 59.3175 2.31858Z" fill="#2563EB"/>
<path d="M23.2661 97.5776C23.2144 97.4887 23.157 97.4089 23.0979 97.3218C23.1337 97.3755 23.1769 97.4276 23.2127 97.4813C22.8053 96.932 22.2809 96.4797 21.7729 96.0313C21.2434 95.557 20.7081 95.0917 20.1656 94.6281C19.8563 94.3664 19.5396 94.1064 19.2229 93.8464C19.2717 93.8893 19.3188 93.9249 19.375 93.9662C19.0095 93.6632 18.6254 93.3801 18.2655 93.068C17.8206 92.6904 17.6216 92.0691 17.8415 91.5134C17.9983 91.1199 18.2588 90.7721 18.4757 90.4034C18.6773 90.0692 18.8699 89.7295 19.046 89.3858C19.2504 88.9967 19.4456 88.602 19.6262 88.2106C19.6014 88.2708 19.5749 88.3235 19.5427 88.3853C20.0369 87.3078 20.4382 86.1976 20.7539 85.053C20.8416 84.7299 20.9277 84.3994 21.0047 84.0632C21.0406 83.8841 21.2085 83.7053 21.3676 83.6217C21.5323 83.529 21.773 83.4963 21.9516 83.5633C22.1302 83.6304 22.3044 83.7451 22.3932 83.9263C22.4836 84.1148 22.497 84.3057 22.4515 84.5103C21.9661 86.6258 21.1756 88.6649 20.1254 90.5549C19.9837 90.8129 19.8329 91.0654 19.6821 91.3178C19.5296 91.5629 19.3533 91.8057 19.228 92.0678C19.2528 92.0076 19.2793 91.9549 19.3115 91.8931C19.281 91.9623 19.2579 92.0297 19.2383 92.1119C19.2466 92.0479 19.2624 91.9821 19.2707 91.9181C19.2607 91.9747 19.2579 92.0297 19.2626 92.083C19.2545 92.015 19.2464 91.947 19.2457 91.8773C19.2487 91.9232 19.2607 91.9748 19.2783 92.0172C19.2555 91.9527 19.2327 91.8881 19.2026 91.8253C19.2219 91.8751 19.2469 91.9159 19.2719 91.9566C19.2361 91.9028 19.193 91.8508 19.1572 91.797C19.2254 91.8898 19.3048 91.9645 19.3917 92.0374C19.3429 91.9945 19.2958 91.9588 19.2396 91.9176C20.7037 93.1058 22.1735 94.2848 23.5387 95.5814C23.9361 95.9546 24.2944 96.3602 24.582 96.8288C24.6821 96.9918 24.6927 97.2377 24.6404 97.4129C24.588 97.5881 24.4456 97.7764 24.2775 97.8544C23.9073 98.0647 23.4895 97.937 23.2661 97.5776Z" fill="#2563EB"/>
</svg>
