<svg width="116" height="26" viewBox="0 0 116 26" fill="none" xmlns="http://www.w3.org/2000/svg">
<path d="M42.7422 19.2175V5.74268H47.2523C48.7124 5.74268 49.9806 6.03207 51.0571 6.61085C52.146 7.17757 52.9873 7.96737 53.5812 8.98024C54.1751 9.98105 54.4721 11.1447 54.4721 12.471C54.4721 13.7854 54.1751 14.9549 53.5812 15.9799C52.9873 16.9928 52.146 17.7886 51.0571 18.3674C49.9806 18.9341 48.7124 19.2175 47.2523 19.2175H42.7422ZM45.2663 17.047H47.3079C48.2484 17.047 49.0587 16.8602 49.7393 16.4863C50.4322 16.1005 50.9704 15.5699 51.354 14.8947C51.7376 14.2074 51.9294 13.3995 51.9294 12.471C51.9294 11.5305 51.7376 10.7226 51.354 10.0474C50.9704 9.37213 50.4322 8.84761 49.7393 8.47381C49.0587 8.10001 48.2484 7.91311 47.3079 7.91311H45.2663V17.047ZM59.3029 19.4345C58.5976 19.4345 57.9852 19.32 57.4655 19.0909C56.9458 18.8617 56.5436 18.5361 56.2591 18.1142C55.9745 17.6801 55.8322 17.1796 55.8322 16.6129C55.8322 16.0703 55.956 15.588 56.2034 15.166C56.4508 14.7319 56.8344 14.3702 57.3541 14.0808C57.8738 13.7914 58.5296 13.5864 59.3215 13.4658L62.6252 12.9413V14.75L59.7855 15.2202C59.3029 15.3047 58.9441 15.4554 58.709 15.6724C58.4739 15.8895 58.3564 16.1729 58.3564 16.5225C58.3564 16.8602 58.4863 17.1315 58.7461 17.3364C59.0184 17.5294 59.3525 17.6258 59.7484 17.6258C60.2556 17.6258 60.7011 17.5233 61.0847 17.3183C61.4806 17.1013 61.7838 16.8059 61.9941 16.4321C62.2168 16.0582 62.3282 15.6483 62.3282 15.2022V12.67C62.3282 12.248 62.155 11.8982 61.8085 11.6209C61.4744 11.3315 61.029 11.1869 60.4722 11.1869C59.9525 11.1869 59.4885 11.3256 59.0802 11.6029C58.6843 11.8682 58.3935 12.2238 58.2079 12.67L56.222 11.7295C56.42 11.211 56.7292 10.7648 57.15 10.391C57.583 10.0052 58.0904 9.70372 58.6719 9.48668C59.2534 9.26964 59.8844 9.16111 60.565 9.16111C61.3941 9.16111 62.124 9.31183 62.7551 9.61329C63.3861 9.90268 63.8748 10.3127 64.2213 10.8432C64.5801 11.3617 64.7596 11.9706 64.7596 12.67V19.2175H62.4581V17.5354L62.9778 17.4992C62.718 17.9212 62.4086 18.2769 62.0498 18.5663C61.691 18.8436 61.2827 19.0607 60.8248 19.2175C60.367 19.3622 59.8597 19.4345 59.3029 19.4345ZM70.8488 19.4345C69.7723 19.4345 68.8319 19.1873 68.0276 18.6929C67.2357 18.1865 66.6913 17.5052 66.3944 16.6491L68.2132 15.799C68.4731 16.3537 68.8319 16.7878 69.2897 17.1013C69.7599 17.4148 70.2795 17.5715 70.8488 17.5715C71.2942 17.5715 71.6468 17.4751 71.9067 17.2822C72.1665 17.0892 72.2964 16.836 72.2964 16.5225C72.2964 16.3295 72.2407 16.1729 72.1294 16.0522C72.0303 15.9196 71.8881 15.8111 71.7025 15.7267C71.5292 15.6303 71.3375 15.5518 71.1272 15.4915L69.4753 15.0394C68.6215 14.7983 67.972 14.4304 67.5265 13.9361C67.0934 13.4417 66.8769 12.8568 66.8769 12.1816C66.8769 11.5788 67.0315 11.0542 67.3409 10.6081C67.6626 10.1499 68.1019 9.79416 68.6587 9.54094C69.2278 9.28772 69.8774 9.16111 70.6075 9.16111C71.5602 9.16111 72.4015 9.38418 73.1316 9.83033C73.8616 10.2765 74.3813 10.9035 74.6907 11.7114L72.8347 12.5615C72.6614 12.1153 72.3707 11.7596 71.9624 11.4943C71.554 11.2291 71.0962 11.0964 70.5889 11.0964C70.1806 11.0964 69.8588 11.1869 69.6238 11.3677C69.3887 11.5486 69.2712 11.7837 69.2712 12.0731C69.2712 12.254 69.3206 12.4108 69.4196 12.5434C69.5186 12.676 69.6546 12.7845 69.8279 12.8689C70.0135 12.9534 70.2239 13.0317 70.459 13.1041L72.0737 13.5743C72.9026 13.8155 73.5399 14.1772 73.9854 14.6595C74.4431 15.1419 74.6721 15.7327 74.6721 16.4321C74.6721 17.0229 74.5112 17.5475 74.1896 18.0056C73.8678 18.4518 73.4223 18.8015 72.8532 19.0547C72.284 19.3079 71.6159 19.4345 70.8488 19.4345ZM76.5405 19.2175V5.52563H78.9719V11.3135L78.6378 10.9698C78.8729 10.379 79.2564 9.93283 79.7885 9.63137C80.3329 9.31787 80.964 9.16111 81.6816 9.16111C82.424 9.16111 83.0798 9.31787 83.649 9.63137C84.2305 9.94488 84.6822 10.385 85.0039 10.9517C85.3255 11.5064 85.4864 12.1515 85.4864 12.887V19.2175H83.0551V13.4477C83.0551 13.0136 82.9684 12.6398 82.7952 12.3263C82.6221 12.0129 82.3808 11.7716 82.0714 11.6029C81.7744 11.422 81.4218 11.3315 81.0135 11.3315C80.6176 11.3315 80.2649 11.422 79.9556 11.6029C79.6462 11.7716 79.4049 12.0129 79.2317 12.3263C79.0585 12.6398 78.9719 13.0136 78.9719 13.4477V19.2175H76.5405ZM87.5424 19.2175V5.52563H89.9738V11.3135L89.6397 10.9698C89.8748 10.379 90.2583 9.93283 90.7904 9.63137C91.3348 9.31787 91.9659 9.16111 92.6835 9.16111C93.4259 9.16111 94.0817 9.31787 94.6509 9.63137C95.2324 9.94488 95.6841 10.385 96.0058 10.9517C96.3274 11.5064 96.4883 12.1515 96.4883 12.887V19.2175H94.057V13.4477C94.057 13.0136 93.9703 12.6398 93.7971 12.3263C93.624 12.0129 93.3827 11.7716 93.0733 11.6029C92.7763 11.422 92.4237 11.3315 92.0154 11.3315C91.6195 11.3315 91.2668 11.422 90.9575 11.6029C90.6481 11.7716 90.4068 12.0129 90.2336 12.3263C90.0604 12.6398 89.9738 13.0136 89.9738 13.4477V19.2175H87.5424ZM99.588 23.2147C99.3157 23.2147 99.0497 23.1906 98.7899 23.1423C98.5301 23.1062 98.2949 23.0398 98.0846 22.9434V20.9538C98.2455 20.99 98.4373 21.0262 98.66 21.0623C98.8951 21.0985 99.1116 21.1166 99.3096 21.1166C99.8664 21.1166 100.269 20.99 100.516 20.7368C100.776 20.4835 101.005 20.152 101.203 19.742L101.871 18.2227L101.834 20.2122L97.435 9.37816H100.052L103.133 17.3726H102.205L105.267 9.37816H107.903L103.504 20.2122C103.244 20.8513 102.929 21.3939 102.558 21.8401C102.186 22.2863 101.753 22.6238 101.258 22.8529C100.776 23.0941 100.219 23.2147 99.588 23.2147Z" fill="black"/>
<path fill-rule="evenodd" clip-rule="evenodd" d="M23.9793 21.1225C23.5717 20.7905 23.1816 20.4318 22.8116 20.0475C20.375 17.5173 19.0061 14.0854 19.0061 10.5069C19.0061 8.13998 19.605 5.83716 20.7157 3.81695C19.9486 3.12124 19.0357 2.60318 18.042 2.30175C16.9392 1.96722 15.7709 1.90982 14.6406 2.13465C13.5103 2.35948 12.4529 2.85959 11.5621 3.59068C10.6712 4.32179 9.97445 5.26129 9.53344 6.32601C9.09242 7.39072 8.92079 8.54775 9.03375 9.69464C9.1467 10.8415 9.54076 11.9429 10.181 12.901C10.8213 13.8593 11.688 14.6448 12.7043 15.1881C13.7207 15.7313 14.8553 16.0155 16.0078 16.0155V22.9074C16.4993 22.9685 16.9996 23 17.5069 23C19.8763 23 22.0916 22.314 23.9793 21.1225ZM28.4925 16.1995C28.0999 15.9387 27.7324 15.6328 27.3976 15.2852C26.1772 14.0179 25.4916 12.2992 25.4916 10.5069C25.4916 8.71473 26.1772 6.99594 27.3976 5.72866C27.8358 5.27358 28.3301 4.8901 28.8636 4.58549C29.5931 6.23561 30 8.072 30 10.0072C30 12.2493 29.4539 14.3587 28.4925 16.1995Z" fill="#141519"/>
</svg>
