<svg width="36" height="36" viewBox="0 0 36 36" fill="none" xmlns="http://www.w3.org/2000/svg">
<path fill-rule="evenodd" clip-rule="evenodd" d="M30.375 18.0363C30.375 17.3949 29.8551 16.875 29.2137 16.875H7.53629C6.89493 16.875 6.375 17.3949 6.375 18.0363C6.375 18.6776 6.89493 19.1976 7.53629 19.1976H29.2137C29.8551 19.1976 30.375 18.6776 30.375 18.0363Z" fill="black"/>
<path fill-rule="evenodd" clip-rule="evenodd" d="M30.375 10.5363C30.375 9.89493 29.8551 9.375 29.2137 9.375H7.53629C6.89493 9.375 6.375 9.89493 6.375 10.5363C6.375 11.1776 6.89493 11.6976 7.53629 11.6976H29.2137C29.8551 11.6976 30.375 11.1776 30.375 10.5363Z" fill="black"/>
<path fill-rule="evenodd" clip-rule="evenodd" d="M30.375 25.5363C30.375 24.8949 29.8551 24.375 29.2137 24.375H7.53629C6.89493 24.375 6.375 24.8949 6.375 25.5363C6.375 26.1776 6.89493 26.6976 7.53629 26.6976H29.2137C29.8551 26.6976 30.375 26.1776 30.375 25.5363Z" fill="black"/>
</svg>
