<svg width="547" height="394" viewBox="0 0 547 394" fill="none" xmlns="http://www.w3.org/2000/svg">
<mask id="mask0_252_573" style="mask-type:alpha" maskUnits="userSpaceOnUse" x="0" y="0" width="547" height="394">
<rect width="546.987" height="394" fill="#D9D9D9"/>
</mask>
<g mask="url(#mask0_252_573)">
<rect x="-0.0957853" y="-0.56496" width="508.958" height="578.771" rx="59.5" transform="matrix(0.712223 -0.701953 -0.903794 -0.427968 508.579 390.683)" stroke="#2563EB"/>
<rect x="-0.0957853" y="-0.56496" width="508.958" height="578.771" rx="59.5" transform="matrix(0.712223 -0.701953 -0.903794 -0.427968 508.579 390.683)" stroke="#2563EB"/>
<rect x="-0.309257" y="-0.555505" width="450.915" height="625.071" rx="59.5" transform="matrix(0.365143 -0.930951 -0.983656 -0.180058 654.335 439.471)" stroke="#2563EB"/>
<rect x="-0.5" y="-0.5" width="434.552" height="636.563" rx="59.5" transform="matrix(-6.39849e-08 -1 -1 2.98615e-08 832.375 430.172)" stroke="#2563EB"/>
<rect x="-0.674399" y="-0.375447" width="388.098" height="538.047" rx="59.5" transform="matrix(-0.365143 -0.930951 -0.983656 0.180058 949.765 330.662)" stroke="#2563EB"/>
</g>
</svg>
