<svg width="128" height="128" viewBox="0 0 128 128" fill="none" xmlns="http://www.w3.org/2000/svg">
<g filter="url(#filter0_d_447_13095)">
<rect x="16" y="12" width="96" height="96" rx="10" fill="white"/>
</g>
<g clip-path="url(#clip0_447_13095)">
<path d="M57.3732 61.6787L58.048 57.3855L56.5449 57.3506H49.3672L54.3553 25.6706C54.3708 25.5749 54.4211 25.4858 54.4947 25.4224C54.5682 25.3591 54.6624 25.3242 54.7605 25.3242H66.863C70.8809 25.3242 73.6536 26.1617 75.1013 27.8146C75.78 28.5901 76.2122 29.4004 76.4212 30.2921C76.6406 31.2278 76.6445 32.3457 76.4303 33.7091L76.4148 33.8087V34.6823L77.0935 35.0674C77.665 35.3711 78.1192 35.7188 78.4676 36.1168C79.0482 36.7798 79.4237 37.6225 79.5824 38.6215C79.7462 39.6489 79.692 40.8715 79.4237 42.2556C79.114 43.8478 78.6134 45.2345 77.9373 46.3693C77.3154 47.4148 76.5232 48.282 75.5826 48.954C74.6846 49.5924 73.6175 50.0771 72.4111 50.3872C71.2422 50.6922 69.9093 50.846 68.4475 50.846H67.5056C66.8321 50.846 66.1779 51.089 65.6644 51.5245C65.1496 51.9691 64.809 52.5765 64.7044 53.2408L64.6335 53.6272L63.4413 61.1941L63.3871 61.4719C63.3729 61.5598 63.3484 61.6038 63.3123 61.6335C63.28 61.6606 63.2336 61.6787 63.1884 61.6787H57.3732V61.6787Z" fill="#253B80"/>
<path d="M77.7376 33.9082C77.7015 34.1395 77.6602 34.376 77.6138 34.619C76.0177 42.8269 70.5574 45.6624 63.5835 45.6624H60.0328C59.1799 45.6624 58.4612 46.2827 58.3283 47.1253L56.5104 58.674L55.9956 61.9476C55.9091 62.5007 56.3349 62.9996 56.8923 62.9996H63.19C63.9358 62.9996 64.5693 62.4568 64.6867 61.7201L64.7486 61.3996L65.9344 53.8625L66.0105 53.4489C66.1266 52.7097 66.7614 52.1669 67.5072 52.1669H68.4491C74.5507 52.1669 79.3272 49.6855 80.7233 42.5051C81.3065 39.5055 81.0046 37.0009 79.4614 35.2393C78.9943 34.7082 78.415 34.2675 77.7376 33.9082V33.9082Z" fill="#179BD7"/>
<path d="M76.0678 33.2418C75.824 33.1707 75.5724 33.1061 75.3143 33.0479C75.055 32.9911 74.7892 32.9407 74.5157 32.8967C73.5583 32.7416 72.5093 32.668 71.3855 32.668H61.8995C61.666 32.668 61.4441 32.721 61.2454 32.8166C60.808 33.0272 60.4828 33.4421 60.4041 33.95L58.3862 46.7523L58.3281 47.1258C58.461 46.2831 59.1797 45.6628 60.0326 45.6628H63.5833C70.5572 45.6628 76.0175 42.826 77.6136 34.6195C77.6613 34.3765 77.7013 34.14 77.7374 33.9086C77.3336 33.6941 76.8962 33.5106 76.4252 33.3542C76.3091 33.3154 76.1891 33.278 76.0678 33.2418V33.2418Z" fill="#222D65"/>
<path d="M60.4045 33.95C60.4832 33.4421 60.8083 33.0272 61.2457 32.8179C61.4457 32.7222 61.6664 32.6693 61.8999 32.6693H71.3858C72.5097 32.6693 73.5586 32.7429 74.516 32.898C74.7895 32.9419 75.0553 32.9923 75.3147 33.0492C75.5727 33.1074 75.8243 33.172 76.0682 33.2431C76.1895 33.2793 76.3095 33.3167 76.4269 33.3542C76.8978 33.5106 77.3352 33.6954 77.7391 33.9086C78.2139 30.8754 77.7352 28.8102 76.0979 26.9402C74.2928 24.8814 71.0349 24 66.8661 24H54.7635C53.9119 24 53.1855 24.6203 53.0539 25.4643L48.0129 57.4699C47.9135 58.1032 48.4013 58.6744 49.0386 58.6744H56.5105L58.3865 46.7523L60.4045 33.95V33.95Z" fill="#253B80"/>
</g>
<path d="M47.1001 78.2C48.0428 78.2 48.8361 78.5173 49.4801 79.152C50.1241 79.7867 50.4461 80.566 50.4461 81.49C50.4461 82.414 50.1241 83.1933 49.4801 83.828C48.8361 84.4627 48.0428 84.78 47.1001 84.78H45.3781V88H43.4461V78.2H47.1001ZM47.1001 82.974C47.5108 82.974 47.8515 82.834 48.1221 82.554C48.3928 82.2647 48.5281 81.91 48.5281 81.49C48.5281 81.0607 48.3928 80.706 48.1221 80.426C47.8515 80.146 47.5108 80.006 47.1001 80.006H45.3781V82.974H47.1001ZM56.4751 81H58.2811V88H56.4751V87.174C55.9338 87.8553 55.1731 88.196 54.1931 88.196C53.2598 88.196 52.4571 87.8413 51.7851 87.132C51.1224 86.4133 50.7911 85.536 50.7911 84.5C50.7911 83.464 51.1224 82.5913 51.7851 81.882C52.4571 81.1633 53.2598 80.804 54.1931 80.804C55.1731 80.804 55.9338 81.1447 56.4751 81.826V81ZM53.1431 85.928C53.5071 86.292 53.9691 86.474 54.5291 86.474C55.0891 86.474 55.5511 86.292 55.9151 85.928C56.2884 85.5547 56.4751 85.0787 56.4751 84.5C56.4751 83.9213 56.2884 83.45 55.9151 83.086C55.5511 82.7127 55.0891 82.526 54.5291 82.526C53.9691 82.526 53.5071 82.7127 53.1431 83.086C52.7791 83.45 52.5971 83.9213 52.5971 84.5C52.5971 85.0787 52.7791 85.5547 53.1431 85.928ZM64.4828 81H66.4148L63.8668 88C63.5028 89.008 63.0174 89.736 62.4108 90.184C61.8134 90.6413 61.0668 90.8467 60.1708 90.8V89.12C60.6561 89.1293 61.0388 89.0267 61.3188 88.812C61.6081 88.5973 61.8368 88.252 62.0048 87.776L59.1348 81H61.1088L62.9288 85.704L64.4828 81ZM71.0122 78.2C71.9549 78.2 72.7482 78.5173 73.3922 79.152C74.0362 79.7867 74.3582 80.566 74.3582 81.49C74.3582 82.414 74.0362 83.1933 73.3922 83.828C72.7482 84.4627 71.9549 84.78 71.0122 84.78H69.2902V88H67.3582V78.2H71.0122ZM71.0122 82.974C71.4229 82.974 71.7636 82.834 72.0342 82.554C72.3049 82.2647 72.4402 81.91 72.4402 81.49C72.4402 81.0607 72.3049 80.706 72.0342 80.426C71.7636 80.146 71.4229 80.006 71.0122 80.006H69.2902V82.974H71.0122ZM80.3872 81H82.1932V88H80.3872V87.174C79.8459 87.8553 79.0852 88.196 78.1052 88.196C77.1719 88.196 76.3692 87.8413 75.6972 87.132C75.0345 86.4133 74.7032 85.536 74.7032 84.5C74.7032 83.464 75.0345 82.5913 75.6972 81.882C76.3692 81.1633 77.1719 80.804 78.1052 80.804C79.0852 80.804 79.8459 81.1447 80.3872 81.826V81ZM77.0552 85.928C77.4192 86.292 77.8812 86.474 78.4412 86.474C79.0012 86.474 79.4632 86.292 79.8272 85.928C80.2005 85.5547 80.3872 85.0787 80.3872 84.5C80.3872 83.9213 80.2005 83.45 79.8272 83.086C79.4632 82.7127 79.0012 82.526 78.4412 82.526C77.8812 82.526 77.4192 82.7127 77.0552 83.086C76.6912 83.45 76.5092 83.9213 76.5092 84.5C76.5092 85.0787 76.6912 85.5547 77.0552 85.928ZM83.8309 88V77.78H85.6369V88H83.8309Z" fill="black"/>
<defs>
<filter id="filter0_d_447_13095" x="0" y="0" width="128" height="128" filterUnits="userSpaceOnUse" color-interpolation-filters="sRGB">
<feFlood flood-opacity="0" result="BackgroundImageFix"/>
<feColorMatrix in="SourceAlpha" type="matrix" values="0 0 0 0 0 0 0 0 0 0 0 0 0 0 0 0 0 0 127 0" result="hardAlpha"/>
<feOffset dy="4"/>
<feGaussianBlur stdDeviation="8"/>
<feComposite in2="hardAlpha" operator="out"/>
<feColorMatrix type="matrix" values="0 0 0 0 0.579167 0 0 0 0 0.579167 0 0 0 0 0.579167 0 0 0 0.15 0"/>
<feBlend mode="normal" in2="BackgroundImageFix" result="effect1_dropShadow_447_13095"/>
<feBlend mode="normal" in="SourceGraphic" in2="effect1_dropShadow_447_13095" result="shape"/>
</filter>
<clipPath id="clip0_447_13095">
<rect width="33" height="39" fill="white" transform="translate(48 24)"/>
</clipPath>
</defs>
</svg>
