<svg width="56" height="45" viewBox="0 0 56 45" fill="none" xmlns="http://www.w3.org/2000/svg">
<path d="M35.048 40.7575C26.8176 31.4796 32.4871 15.329 39.3391 9.08572C45.1788 3.76485 54.8553 -0.585595 55.7675 0.93449C57.2177 3.35104 51.5098 5.06664 47.2183 8.94524C41.8611 14.7636 40.0622 17.3792 47.4749 20.6615C55.4205 24.2629 55.5731 27.7855 55.8284 32.2669C56.4712 43.549 43.0827 48.827 35.048 40.7575Z" fill="black"/>
<path d="M4.07923 40.5969C-4.15118 31.319 1.51836 15.1684 8.3704 8.92507C14.21 3.60421 23.8865 -0.746239 24.7987 0.773846C26.249 3.1904 20.541 4.906 16.2496 8.7846C10.8924 14.603 9.09346 17.2185 16.5062 20.5008C24.4518 24.1023 24.6044 27.6249 24.8597 32.1063C25.5024 43.3883 12.1139 48.6663 4.07923 40.5969Z" fill="black"/>
</svg>
