<svg width="128" height="128" viewBox="0 0 128 128" fill="none" xmlns="http://www.w3.org/2000/svg">
<g filter="url(#filter0_d_447_13103)">
<rect x="16" y="12" width="96" height="96" rx="10" fill="white"/>
</g>
<g clip-path="url(#clip0_447_13103)">
<path d="M76.7189 31.6579C76.6923 31.4627 76.5224 31.3549 76.382 31.3431C76.2419 31.3312 73.2765 31.1102 73.2765 31.1102C73.2765 31.1102 71.2169 29.054 70.991 28.8265C70.7647 28.599 70.3231 28.6682 70.1517 28.719C70.1262 28.7265 69.7016 28.8583 68.999 29.0768C68.3109 27.086 67.0969 25.2564 64.9608 25.2564C64.9019 25.2564 64.8412 25.2589 64.7804 25.2624C64.1729 24.4545 63.4204 24.1035 62.7705 24.1035C57.7947 24.1035 55.4175 30.3588 54.6721 33.5376C52.7387 34.1401 51.365 34.5684 51.1896 34.6239C50.1104 34.9642 50.0763 34.9985 49.9347 36.0212C49.8278 36.7954 47.0039 58.7568 47.0039 58.7568L69.008 62.9029L80.9307 60.309C80.9307 60.309 76.7453 31.853 76.7189 31.6579ZM67.7828 29.4552C67.2302 29.6272 66.6019 29.8227 65.921 30.0346C65.9216 29.9028 65.9222 29.7728 65.9222 29.631C65.9222 28.3936 65.7515 27.3974 65.4775 26.6076C66.5781 26.7466 67.3111 28.0058 67.7828 29.4552ZM64.1122 26.8529C64.4181 27.624 64.6171 28.7305 64.6171 30.2238C64.6171 30.3002 64.6165 30.37 64.6158 30.4407C63.4049 30.8179 62.0892 31.2274 60.7704 31.6382C61.5109 28.7645 62.8988 27.3765 64.1122 26.8529ZM62.6338 25.4456C62.8486 25.4456 63.0649 25.5189 63.272 25.6623C61.6773 26.4169 59.968 28.3175 59.2462 32.1129C58.1911 32.4414 57.16 32.7625 56.2066 33.0595C57.0521 30.1646 59.0599 25.4456 62.6338 25.4456Z" fill="#95BF46"/>
<path d="M76.3806 31.3431C76.2405 31.3312 73.275 31.1102 73.275 31.1102C73.275 31.1102 71.2155 29.054 70.9896 28.8265C70.9049 28.7417 70.7909 28.6984 70.6716 28.6797L69.0078 62.9026L80.9293 60.309C80.9293 60.309 76.7439 31.853 76.7175 31.6579C76.6909 31.4627 76.521 31.3549 76.3806 31.3431Z" fill="#5E8E3E"/>
<path d="M64.9598 37.9681L63.4897 42.3657C63.4897 42.3657 62.2016 41.6744 60.6228 41.6744C58.3082 41.6744 58.1916 43.1352 58.1916 43.5033C58.1916 45.5118 63.398 46.2814 63.398 50.986C63.398 54.6873 61.0635 57.0707 57.9158 57.0707C54.1386 57.0707 52.207 54.7066 52.207 54.7066L53.2184 51.3463C53.2184 51.3463 55.2038 53.0606 56.8794 53.0606C57.9741 53.0606 58.4194 52.1938 58.4194 51.5604C58.4194 48.9404 54.1482 48.8235 54.1482 44.5185C54.1482 40.8951 56.7343 37.3887 61.9546 37.3887C63.9661 37.3887 64.9598 37.9681 64.9598 37.9681Z" fill="white"/>
</g>
<path d="M43.6476 88.196C42.6769 88.196 41.8603 87.9813 41.1976 87.552C40.5349 87.1133 40.0683 86.5207 39.7976 85.774L41.4496 84.808C41.8323 85.8067 42.5836 86.306 43.7036 86.306C44.2449 86.306 44.6416 86.208 44.8936 86.012C45.1456 85.816 45.2716 85.5687 45.2716 85.27C45.2716 84.9247 45.1176 84.6587 44.8096 84.472C44.5016 84.276 43.9509 84.066 43.1576 83.842C42.7189 83.7113 42.3456 83.5807 42.0376 83.45C41.7389 83.3193 41.4356 83.1467 41.1276 82.932C40.8289 82.708 40.6003 82.428 40.4416 82.092C40.2829 81.756 40.2036 81.364 40.2036 80.916C40.2036 80.0293 40.5163 79.3247 41.1416 78.802C41.7763 78.27 42.5369 78.004 43.4236 78.004C44.2169 78.004 44.9123 78.2 45.5096 78.592C46.1163 78.9747 46.5876 79.5113 46.9236 80.202L45.2996 81.14C44.9076 80.3 44.2823 79.88 43.4236 79.88C43.0223 79.88 42.7049 79.9733 42.4716 80.16C42.2476 80.3373 42.1356 80.5707 42.1356 80.86C42.1356 81.168 42.2616 81.42 42.5136 81.616C42.7749 81.8027 43.2696 82.008 43.9976 82.232C44.2963 82.3253 44.5203 82.4 44.6696 82.456C44.8283 82.5027 45.0383 82.582 45.2996 82.694C45.5703 82.7967 45.7756 82.8947 45.9156 82.988C46.0649 83.0813 46.2329 83.2073 46.4196 83.366C46.6063 83.5247 46.7463 83.688 46.8396 83.856C46.9423 84.024 47.0263 84.2293 47.0916 84.472C47.1663 84.7053 47.2036 84.962 47.2036 85.242C47.2036 86.1473 46.8723 86.866 46.2096 87.398C45.5563 87.93 44.7023 88.196 43.6476 88.196ZM52.2717 80.804C53.037 80.804 53.667 81.0607 54.1617 81.574C54.6657 82.0873 54.9177 82.7967 54.9177 83.702V88H53.1117V83.926C53.1117 83.4593 52.9857 83.1047 52.7337 82.862C52.4817 82.61 52.1457 82.484 51.7257 82.484C51.259 82.484 50.8857 82.6287 50.6057 82.918C50.3257 83.2073 50.1857 83.6413 50.1857 84.22V88H48.3797V78.2H50.1857V81.784C50.6244 81.1307 51.3197 80.804 52.2717 80.804ZM62.4238 87.132C61.7051 87.8413 60.8278 88.196 59.7918 88.196C58.7558 88.196 57.8785 87.8413 57.1598 87.132C56.4505 86.4133 56.0958 85.536 56.0958 84.5C56.0958 83.464 56.4505 82.5913 57.1598 81.882C57.8785 81.1633 58.7558 80.804 59.7918 80.804C60.8278 80.804 61.7051 81.1633 62.4238 81.882C63.1425 82.5913 63.5018 83.464 63.5018 84.5C63.5018 85.536 63.1425 86.4133 62.4238 87.132ZM58.4338 85.886C58.7978 86.25 59.2505 86.432 59.7918 86.432C60.3331 86.432 60.7858 86.25 61.1498 85.886C61.5138 85.522 61.6958 85.06 61.6958 84.5C61.6958 83.94 61.5138 83.478 61.1498 83.114C60.7858 82.75 60.3331 82.568 59.7918 82.568C59.2505 82.568 58.7978 82.75 58.4338 83.114C58.0791 83.478 57.9018 83.94 57.9018 84.5C57.9018 85.06 58.0791 85.522 58.4338 85.886ZM68.8463 80.804C69.789 80.804 70.5916 81.1633 71.2543 81.882C71.9263 82.5913 72.2623 83.464 72.2623 84.5C72.2623 85.536 71.9263 86.4133 71.2543 87.132C70.5916 87.8413 69.789 88.196 68.8463 88.196C67.8663 88.196 67.1103 87.8553 66.5783 87.174V90.8H64.7723V81H66.5783V81.826C67.1103 81.1447 67.8663 80.804 68.8463 80.804ZM67.1243 85.928C67.4883 86.292 67.9503 86.474 68.5103 86.474C69.0703 86.474 69.5323 86.292 69.8963 85.928C70.2696 85.5547 70.4563 85.0787 70.4563 84.5C70.4563 83.9213 70.2696 83.45 69.8963 83.086C69.5323 82.7127 69.0703 82.526 68.5103 82.526C67.9503 82.526 67.4883 82.7127 67.1243 83.086C66.7603 83.45 66.5783 83.9213 66.5783 84.5C66.5783 85.0787 66.7603 85.5547 67.1243 85.928ZM77.61 80.804C78.5526 80.804 79.3553 81.1633 80.018 81.882C80.69 82.5913 81.026 83.464 81.026 84.5C81.026 85.536 80.69 86.4133 80.018 87.132C79.3553 87.8413 78.5526 88.196 77.61 88.196C76.63 88.196 75.874 87.8553 75.342 87.174V90.8H73.536V81H75.342V81.826C75.874 81.1447 76.63 80.804 77.61 80.804ZM75.888 85.928C76.252 86.292 76.714 86.474 77.274 86.474C77.834 86.474 78.296 86.292 78.66 85.928C79.0333 85.5547 79.22 85.0787 79.22 84.5C79.22 83.9213 79.0333 83.45 78.66 83.086C78.296 82.7127 77.834 82.526 77.274 82.526C76.714 82.526 76.252 82.7127 75.888 83.086C75.524 83.45 75.342 83.9213 75.342 84.5C75.342 85.0787 75.524 85.5547 75.888 85.928ZM83.8256 85.242C84.0683 86.1193 84.7263 86.558 85.7996 86.558C86.4903 86.558 87.013 86.3247 87.3676 85.858L88.8236 86.698C88.133 87.6967 87.1156 88.196 85.7716 88.196C84.6143 88.196 83.6856 87.846 82.9856 87.146C82.2856 86.446 81.9356 85.564 81.9356 84.5C81.9356 83.4453 82.281 82.568 82.9716 81.868C83.6623 81.1587 84.549 80.804 85.6316 80.804C86.6583 80.804 87.503 81.1587 88.1656 81.868C88.8376 82.5773 89.1736 83.4547 89.1736 84.5C89.1736 84.7333 89.1503 84.9807 89.1036 85.242H83.8256ZM83.7976 83.842H87.3676C87.265 83.366 87.0503 83.0113 86.7236 82.778C86.4063 82.5447 86.0423 82.428 85.6316 82.428C85.1463 82.428 84.745 82.554 84.4276 82.806C84.1103 83.0487 83.9003 83.394 83.7976 83.842Z" fill="black"/>
<defs>
<filter id="filter0_d_447_13103" x="0" y="0" width="128" height="128" filterUnits="userSpaceOnUse" color-interpolation-filters="sRGB">
<feFlood flood-opacity="0" result="BackgroundImageFix"/>
<feColorMatrix in="SourceAlpha" type="matrix" values="0 0 0 0 0 0 0 0 0 0 0 0 0 0 0 0 0 0 127 0" result="hardAlpha"/>
<feOffset dy="4"/>
<feGaussianBlur stdDeviation="8"/>
<feComposite in2="hardAlpha" operator="out"/>
<feColorMatrix type="matrix" values="0 0 0 0 0.579167 0 0 0 0 0.579167 0 0 0 0 0.579167 0 0 0 0.15 0"/>
<feBlend mode="normal" in2="BackgroundImageFix" result="effect1_dropShadow_447_13103"/>
<feBlend mode="normal" in="SourceGraphic" in2="effect1_dropShadow_447_13103" result="shape"/>
</filter>
<clipPath id="clip0_447_13103">
<rect width="34" height="39" fill="white" transform="translate(47 24)"/>
</clipPath>
</defs>
</svg>
