<svg width="128" height="128" viewBox="0 0 128 128" fill="none" xmlns="http://www.w3.org/2000/svg">
<g filter="url(#filter0_d_447_13111)">
<rect x="16" y="12" width="96" height="96" rx="10" fill="white"/>
</g>
<g clip-path="url(#clip0_447_13111)">
<path fill-rule="evenodd" clip-rule="evenodd" d="M59.2364 24.0957C58.726 24.0962 58.2207 24.1972 57.7493 24.393C57.278 24.5888 56.8498 24.8755 56.4892 25.2368C56.1287 25.5981 55.8428 26.0268 55.648 26.4986C55.4532 26.9704 55.3532 27.4759 55.3538 27.9863C55.3533 28.4967 55.4534 29.0021 55.6482 29.4738C55.8431 29.9455 56.129 30.3742 56.4895 30.7354C56.85 31.0966 57.2782 31.3833 57.7495 31.579C58.2208 31.7747 58.7261 31.8757 59.2364 31.8762H63.1191V27.9863C63.1197 27.4759 63.0197 26.9704 62.8249 26.4986C62.6301 26.0268 62.3442 25.5981 61.9837 25.2368C61.6231 24.8755 61.1949 24.5888 60.7236 24.393C60.2522 24.1972 59.7469 24.0962 59.2364 24.0957V24.0957ZM59.2364 34.4704H48.8827C48.3723 34.4709 47.8671 34.5719 47.3957 34.7676C46.9244 34.9634 46.4963 35.25 46.1357 35.6112C45.7752 35.9725 45.4893 36.4011 45.2944 36.8728C45.0996 37.3445 44.9995 37.85 45 38.3603C44.9994 38.8707 45.0994 39.3763 45.2942 39.848C45.4891 40.3198 45.7749 40.7486 46.1355 41.1099C46.496 41.4711 46.9242 41.7579 47.3956 41.9536C47.8669 42.1494 48.3723 42.2505 48.8827 42.2509H59.2364C59.7469 42.2505 60.2522 42.1494 60.7236 41.9536C61.1949 41.7579 61.6231 41.4711 61.9837 41.1099C62.3442 40.7486 62.6301 40.3198 62.8249 39.848C63.0197 39.3763 63.1197 38.8707 63.1191 38.3603C63.1196 37.85 63.0195 37.3445 62.8247 36.8728C62.6298 36.4011 62.3439 35.9725 61.9834 35.6112C61.6229 35.25 61.1947 34.9634 60.7234 34.7676C60.2521 34.5719 59.7468 34.4709 59.2364 34.4704" fill="#36C5F0"/>
<path fill-rule="evenodd" clip-rule="evenodd" d="M83.8261 38.3603C83.8266 37.85 83.7266 37.3445 83.5317 36.8728C83.3368 36.4011 83.051 35.9725 82.6904 35.6112C82.3299 35.25 81.9017 34.9634 81.4304 34.7676C80.9591 34.5719 80.4538 34.4709 79.9435 34.4704C79.4331 34.4709 78.9279 34.5719 78.4565 34.7676C77.9852 34.9634 77.5571 35.25 77.1965 35.6112C76.836 35.9725 76.5501 36.4011 76.3553 36.8728C76.1604 37.3445 76.0603 37.85 76.0608 38.3603V42.2509H79.9435C80.4539 42.2505 80.9592 42.1494 81.4306 41.9536C81.902 41.7579 82.3301 41.4711 82.6907 41.1099C83.0512 40.7486 83.3371 40.3198 83.5319 39.848C83.7267 39.3763 83.8267 38.8707 83.8261 38.3603ZM73.4724 38.3603V27.9863C73.4729 27.4759 73.373 26.9704 73.1781 26.4986C72.9833 26.0268 72.6975 25.5981 72.3369 25.2368C71.9764 24.8755 71.5482 24.5888 71.0768 24.393C70.6054 24.1972 70.1001 24.0962 69.5897 24.0957C69.0793 24.0962 68.574 24.1972 68.1026 24.393C67.6312 24.5888 67.203 24.8755 66.8425 25.2368C66.4819 25.5981 66.1961 26.0268 66.0013 26.4986C65.8064 26.9704 65.7065 27.4759 65.707 27.9863V38.3603C65.7065 38.8707 65.8064 39.3763 66.0013 39.848C66.1961 40.3198 66.4819 40.7486 66.8425 41.1099C67.203 41.4711 67.6312 41.7579 68.1026 41.9536C68.574 42.1494 69.0793 42.2505 69.5897 42.2509C70.1001 42.2505 70.6054 42.1494 71.0768 41.9536C71.5482 41.7579 71.9764 41.4711 72.3369 41.1099C72.6975 40.7486 72.9833 40.3198 73.1781 39.848C73.373 39.3763 73.4729 38.8707 73.4724 38.3603" fill="#2EB67D"/>
<path fill-rule="evenodd" clip-rule="evenodd" d="M69.5897 62.999C70.1001 62.9985 70.6054 62.8975 71.0768 62.7017C71.5482 62.5059 71.9764 62.2192 72.3369 61.8579C72.6975 61.4966 72.9833 61.0678 73.1781 60.5961C73.373 60.1243 73.4729 59.6188 73.4724 59.1084C73.4728 58.598 73.3728 58.0926 73.1779 57.6209C72.9831 57.1492 72.6972 56.7205 72.3367 56.3593C71.9761 55.9981 71.548 55.7114 71.0766 55.5157C70.6053 55.3199 70.1001 55.2189 69.5897 55.2185H65.707V59.1084C65.7065 59.6188 65.8064 60.1243 66.0013 60.5961C66.1961 61.0678 66.4819 61.4966 66.8425 61.8579C67.203 62.2192 67.6312 62.5059 68.1026 62.7017C68.574 62.8975 69.0793 62.9985 69.5897 62.999ZM69.5897 52.6242H79.9435C80.4538 52.6238 80.9591 52.5228 81.4304 52.327C81.9017 52.1313 82.3299 51.8446 82.6904 51.4834C83.051 51.1222 83.3368 50.6935 83.5317 50.2219C83.7266 49.7502 83.8266 49.2447 83.8261 48.7344C83.8267 48.2239 83.7267 47.7184 83.5319 47.2466C83.3371 46.7749 83.0512 46.3461 82.6907 45.9848C82.3301 45.6235 81.902 45.3368 81.4306 45.141C80.9592 44.9452 80.4539 44.8442 79.9435 44.8438H69.5897C69.0793 44.8442 68.574 44.9452 68.1026 45.141C67.6312 45.3368 67.203 45.6235 66.8425 45.9848C66.4819 46.3461 66.1961 46.7749 66.0013 47.2466C65.8064 47.7184 65.7065 48.2239 65.707 48.7344C65.7066 49.2447 65.8066 49.7502 66.0015 50.2219C66.1963 50.6935 66.4822 51.1222 66.8427 51.4834C67.2033 51.8446 67.6314 52.1313 68.1028 52.327C68.5741 52.5228 69.0793 52.6238 69.5897 52.6242" fill="#ECB22E"/>
<path fill-rule="evenodd" clip-rule="evenodd" d="M45 48.7344C44.9995 49.2447 45.0996 49.7502 45.2944 50.2219C45.4893 50.6935 45.7752 51.1222 46.1357 51.4834C46.4963 51.8446 46.9244 52.1313 47.3957 52.327C47.8671 52.5228 48.3723 52.6238 48.8827 52.6242C49.393 52.6238 49.8983 52.5228 50.3696 52.327C50.8409 52.1313 51.2691 51.8446 51.6296 51.4834C51.9902 51.1222 52.276 50.6935 52.4709 50.2219C52.6658 49.7502 52.7658 49.2447 52.7653 48.7344V44.8438H48.8827C48.3722 44.8442 47.8668 44.9453 47.3954 45.1411C46.924 45.3369 46.4958 45.6237 46.1352 45.9851C45.7746 46.3464 45.4888 46.7753 45.294 47.2472C45.0993 47.719 44.9993 48.2246 45 48.7351V48.7344ZM55.3538 48.7344V59.1084C55.3532 59.6188 55.4532 60.1243 55.648 60.5961C55.8428 61.0678 56.1287 61.4966 56.4892 61.8579C56.8498 62.2192 57.278 62.5059 57.7493 62.7017C58.2207 62.8975 58.726 62.9985 59.2364 62.999C59.7469 62.9985 60.2522 62.8975 60.7236 62.7017C61.1949 62.5059 61.6231 62.2192 61.9837 61.8579C62.3442 61.4966 62.6301 61.0678 62.8249 60.5961C63.0197 60.1243 63.1197 59.6188 63.1191 59.1084V48.7351C63.1197 48.2247 63.0197 47.7191 62.8249 47.2474C62.6301 46.7756 62.3442 46.3468 61.9837 45.9855C61.6231 45.6243 61.1949 45.3375 60.7236 45.1417C60.2522 44.946 59.7469 44.8449 59.2364 44.8445C58.726 44.8449 58.2207 44.946 57.7493 45.1417C57.278 45.3375 56.8498 45.6243 56.4892 45.9855C56.1287 46.3468 55.8428 46.7756 55.648 47.2474C55.4532 47.7191 55.3532 48.2247 55.3538 48.7351" fill="#E01E5A"/>
</g>
<path d="M51.1603 88.196C50.1896 88.196 49.373 87.9813 48.7103 87.552C48.0476 87.1133 47.581 86.5207 47.3103 85.774L48.9623 84.808C49.345 85.8067 50.0963 86.306 51.2163 86.306C51.7576 86.306 52.1543 86.208 52.4063 86.012C52.6583 85.816 52.7843 85.5687 52.7843 85.27C52.7843 84.9247 52.6303 84.6587 52.3223 84.472C52.0143 84.276 51.4636 84.066 50.6703 83.842C50.2316 83.7113 49.8583 83.5807 49.5503 83.45C49.2516 83.3193 48.9483 83.1467 48.6403 82.932C48.3416 82.708 48.113 82.428 47.9543 82.092C47.7956 81.756 47.7163 81.364 47.7163 80.916C47.7163 80.0293 48.029 79.3247 48.6543 78.802C49.289 78.27 50.0496 78.004 50.9363 78.004C51.7296 78.004 52.425 78.2 53.0223 78.592C53.629 78.9747 54.1003 79.5113 54.4363 80.202L52.8123 81.14C52.4203 80.3 51.795 79.88 50.9363 79.88C50.535 79.88 50.2176 79.9733 49.9843 80.16C49.7603 80.3373 49.6483 80.5707 49.6483 80.86C49.6483 81.168 49.7743 81.42 50.0263 81.616C50.2876 81.8027 50.7823 82.008 51.5103 82.232C51.809 82.3253 52.033 82.4 52.1823 82.456C52.341 82.5027 52.551 82.582 52.8123 82.694C53.083 82.7967 53.2883 82.8947 53.4283 82.988C53.5776 83.0813 53.7456 83.2073 53.9323 83.366C54.119 83.5247 54.259 83.688 54.3523 83.856C54.455 84.024 54.539 84.2293 54.6043 84.472C54.679 84.7053 54.7163 84.962 54.7163 85.242C54.7163 86.1473 54.385 86.866 53.7223 87.398C53.069 87.93 52.215 88.196 51.1603 88.196ZM55.8924 88V77.78H57.6984V88H55.8924ZM64.6714 81H66.4774V88H64.6714V87.174C64.1301 87.8553 63.3694 88.196 62.3894 88.196C61.4561 88.196 60.6534 87.8413 59.9814 87.132C59.3187 86.4133 58.9874 85.536 58.9874 84.5C58.9874 83.464 59.3187 82.5913 59.9814 81.882C60.6534 81.1633 61.4561 80.804 62.3894 80.804C63.3694 80.804 64.1301 81.1447 64.6714 81.826V81ZM61.3394 85.928C61.7034 86.292 62.1654 86.474 62.7254 86.474C63.2854 86.474 63.7474 86.292 64.1114 85.928C64.4847 85.5547 64.6714 85.0787 64.6714 84.5C64.6714 83.9213 64.4847 83.45 64.1114 83.086C63.7474 82.7127 63.2854 82.526 62.7254 82.526C62.1654 82.526 61.7034 82.7127 61.3394 83.086C60.9754 83.45 60.7934 83.9213 60.7934 84.5C60.7934 85.0787 60.9754 85.5547 61.3394 85.928ZM71.4471 88.196C70.3924 88.196 69.5104 87.8413 68.8011 87.132C68.1011 86.4227 67.7511 85.5453 67.7511 84.5C67.7511 83.4547 68.1011 82.5773 68.8011 81.868C69.5104 81.1587 70.3924 80.804 71.4471 80.804C72.1284 80.804 72.7491 80.9673 73.3091 81.294C73.8691 81.6207 74.2937 82.0593 74.5831 82.61L73.0291 83.52C72.8891 83.2307 72.6744 83.002 72.3851 82.834C72.1051 82.666 71.7877 82.582 71.4331 82.582C70.8917 82.582 70.4437 82.764 70.0891 83.128C69.7344 83.4827 69.5571 83.94 69.5571 84.5C69.5571 85.0507 69.7344 85.508 70.0891 85.872C70.4437 86.2267 70.8917 86.404 71.4331 86.404C71.7971 86.404 72.1191 86.3247 72.3991 86.166C72.6884 85.998 72.9031 85.7693 73.0431 85.48L74.6111 86.376C74.3031 86.9267 73.8691 87.37 73.3091 87.706C72.7491 88.0327 72.1284 88.196 71.4471 88.196ZM82.0202 88H79.9202L77.3722 84.822V88H75.5662V78.2H77.3722V84.08L79.7802 81H81.9362L79.1222 84.458L82.0202 88Z" fill="black"/>
<defs>
<filter id="filter0_d_447_13111" x="0" y="0" width="128" height="128" filterUnits="userSpaceOnUse" color-interpolation-filters="sRGB">
<feFlood flood-opacity="0" result="BackgroundImageFix"/>
<feColorMatrix in="SourceAlpha" type="matrix" values="0 0 0 0 0 0 0 0 0 0 0 0 0 0 0 0 0 0 127 0" result="hardAlpha"/>
<feOffset dy="4"/>
<feGaussianBlur stdDeviation="8"/>
<feComposite in2="hardAlpha" operator="out"/>
<feColorMatrix type="matrix" values="0 0 0 0 0.579167 0 0 0 0 0.579167 0 0 0 0 0.579167 0 0 0 0.15 0"/>
<feBlend mode="normal" in2="BackgroundImageFix" result="effect1_dropShadow_447_13111"/>
<feBlend mode="normal" in="SourceGraphic" in2="effect1_dropShadow_447_13111" result="shape"/>
</filter>
<clipPath id="clip0_447_13111">
<rect width="39" height="39" fill="white" transform="translate(45 24)"/>
</clipPath>
</defs>
</svg>
