<svg width="128" height="128" viewBox="0 0 128 128" fill="none" xmlns="http://www.w3.org/2000/svg">
<g filter="url(#filter0_d_447_13107)">
<rect x="16" y="12" width="96" height="96" rx="10" fill="white"/>
</g>
<g clip-path="url(#clip0_447_13107)">
<path d="M69.375 43.5085C69.374 44.9575 69.1091 46.3448 68.6262 47.6253C67.3458 48.1086 65.958 48.3741 64.5084 48.3751H64.4916C63.0428 48.3741 61.6553 48.1094 60.375 47.6263C59.892 46.3461 59.626 44.9583 59.625 43.5089V43.492C59.626 42.043 59.8914 40.6557 60.3736 39.3753C61.6546 38.8922 63.0422 38.6265 64.4916 38.6255H64.5084C65.958 38.6265 67.3458 38.8922 68.6261 39.3753C69.1087 40.6558 69.3739 42.0431 69.3749 43.4921V43.509V43.5088L69.375 43.5085ZM83.729 40.25H72.3462L80.3948 32.2014C79.7629 31.3139 79.0581 30.4807 78.2877 29.7105L78.2873 29.7097C77.5176 28.9402 76.6852 28.236 75.7987 27.6047L67.7501 35.6533V24.2712C66.6795 24.0914 65.5958 24.0006 64.5101 24L64.4895 24C63.404 24.0006 62.3204 24.0912 61.2499 24.271V35.6539L53.2013 27.6053C52.3143 28.2369 51.4816 28.9413 50.7116 29.7113L50.7087 29.7139C49.9399 30.4832 49.2364 31.3152 48.6055 32.2013L56.6542 40.2499H45.271C45.271 40.2499 45.0004 42.3881 45 43.4928V43.5069C45.0004 44.5937 45.0911 45.6786 45.271 46.7504H56.6538L48.6052 54.799C49.8709 56.576 51.4243 58.1294 53.2013 59.3951L61.2499 51.3467V62.729C62.3194 62.9085 63.4019 62.9992 64.4863 63H64.5142C65.5985 62.9991 66.6809 62.9085 67.7503 62.729V51.3461L75.7989 59.3947C76.6856 58.7633 77.5181 58.0592 78.2879 57.2895L78.2898 57.2881C79.0593 56.5183 79.7634 55.6858 80.3948 54.7992L72.3462 46.7504H83.729C83.9085 45.681 83.9992 44.5986 84 43.5143V43.4863C83.9991 42.402 83.9085 41.3197 83.729 40.2503V40.25Z" fill="#FF4A00"/>
</g>
<path d="M46.803 86.152H50.961V88H44.339V86.46L48.413 80.048H44.437V78.2H50.877V79.726L46.803 86.152ZM57.1997 81H59.0057V88H57.1997V87.174C56.6584 87.8553 55.8977 88.196 54.9177 88.196C53.9844 88.196 53.1817 87.8413 52.5097 87.132C51.847 86.4133 51.5157 85.536 51.5157 84.5C51.5157 83.464 51.847 82.5913 52.5097 81.882C53.1817 81.1633 53.9844 80.804 54.9177 80.804C55.8977 80.804 56.6584 81.1447 57.1997 81.826V81ZM53.8677 85.928C54.2317 86.292 54.6937 86.474 55.2537 86.474C55.8137 86.474 56.2757 86.292 56.6397 85.928C57.013 85.5547 57.1997 85.0787 57.1997 84.5C57.1997 83.9213 57.013 83.45 56.6397 83.086C56.2757 82.7127 55.8137 82.526 55.2537 82.526C54.6937 82.526 54.2317 82.7127 53.8677 83.086C53.5037 83.45 53.3217 83.9213 53.3217 84.5C53.3217 85.0787 53.5037 85.5547 53.8677 85.928ZM64.7174 80.804C65.66 80.804 66.4627 81.1633 67.1254 81.882C67.7974 82.5913 68.1334 83.464 68.1334 84.5C68.1334 85.536 67.7974 86.4133 67.1254 87.132C66.4627 87.8413 65.66 88.196 64.7174 88.196C63.7374 88.196 62.9814 87.8553 62.4494 87.174V90.8H60.6434V81H62.4494V81.826C62.9814 81.1447 63.7374 80.804 64.7174 80.804ZM62.9954 85.928C63.3594 86.292 63.8214 86.474 64.3814 86.474C64.9414 86.474 65.4034 86.292 65.7674 85.928C66.1407 85.5547 66.3274 85.0787 66.3274 84.5C66.3274 83.9213 66.1407 83.45 65.7674 83.086C65.4034 82.7127 64.9414 82.526 64.3814 82.526C63.8214 82.526 63.3594 82.7127 62.9954 83.086C62.6314 83.45 62.4494 83.9213 62.4494 84.5C62.4494 85.0787 62.6314 85.5547 62.9954 85.928ZM70.3031 80.16C70.0044 80.16 69.7431 80.0527 69.5191 79.838C69.3044 79.614 69.1971 79.3527 69.1971 79.054C69.1971 78.7553 69.3044 78.494 69.5191 78.27C69.7431 78.046 70.0044 77.934 70.3031 77.934C70.6111 77.934 70.8724 78.046 71.0871 78.27C71.3111 78.494 71.4231 78.7553 71.4231 79.054C71.4231 79.3527 71.3111 79.614 71.0871 79.838C70.8724 80.0527 70.6111 80.16 70.3031 80.16ZM69.4071 88V81H71.2131V88H69.4071ZM74.392 85.242C74.6347 86.1193 75.2927 86.558 76.366 86.558C77.0567 86.558 77.5794 86.3247 77.934 85.858L79.39 86.698C78.6994 87.6967 77.682 88.196 76.338 88.196C75.1807 88.196 74.252 87.846 73.552 87.146C72.852 86.446 72.502 85.564 72.502 84.5C72.502 83.4453 72.8474 82.568 73.538 81.868C74.2287 81.1587 75.1154 80.804 76.198 80.804C77.2247 80.804 78.0694 81.1587 78.732 81.868C79.404 82.5773 79.74 83.4547 79.74 84.5C79.74 84.7333 79.7167 84.9807 79.67 85.242H74.392ZM74.364 83.842H77.934C77.8314 83.366 77.6167 83.0113 77.29 82.778C76.9727 82.5447 76.6087 82.428 76.198 82.428C75.7127 82.428 75.3114 82.554 74.994 82.806C74.6767 83.0487 74.4667 83.394 74.364 83.842ZM82.8068 82.204C82.9748 81.756 83.2501 81.42 83.6328 81.196C84.0248 80.972 84.4588 80.86 84.9348 80.86V82.876C84.3841 82.8107 83.8895 82.9227 83.4508 83.212C83.0215 83.5013 82.8068 83.982 82.8068 84.654V88H81.0008V81H82.8068V82.204Z" fill="black"/>
<defs>
<filter id="filter0_d_447_13107" x="0" y="0" width="128" height="128" filterUnits="userSpaceOnUse" color-interpolation-filters="sRGB">
<feFlood flood-opacity="0" result="BackgroundImageFix"/>
<feColorMatrix in="SourceAlpha" type="matrix" values="0 0 0 0 0 0 0 0 0 0 0 0 0 0 0 0 0 0 127 0" result="hardAlpha"/>
<feOffset dy="4"/>
<feGaussianBlur stdDeviation="8"/>
<feComposite in2="hardAlpha" operator="out"/>
<feColorMatrix type="matrix" values="0 0 0 0 0.579167 0 0 0 0 0.579167 0 0 0 0 0.579167 0 0 0 0.15 0"/>
<feBlend mode="normal" in2="BackgroundImageFix" result="effect1_dropShadow_447_13107"/>
<feBlend mode="normal" in="SourceGraphic" in2="effect1_dropShadow_447_13107" result="shape"/>
</filter>
<clipPath id="clip0_447_13107">
<rect width="39" height="39" fill="white" transform="translate(45 24)"/>
</clipPath>
</defs>
</svg>
